<svg width="40" height="40" viewBox="0 0 40 40" fill="none" xmlns="http://www.w3.org/2000/svg">
    <g clip-path="url(#clip0_532_24739)">
        <rect width="40" height="40" rx="20" fill="#F9FAFB"/>
        <g clip-path="url(#clip1_532_24739)">
            <path d="M19.8112 9.96412C26.1152 9.49318 27.2197 16.5011 27.3632 21.2846C27.4479 24.0473 26.6246 27.0955 27.9967 29.5491C29.9449 33.0356 33.3984 35.3836 35.3985 38.8398C36.311 40.4133 37.5477 44.0549 37.5477 44.0549C37.5477 44.0549 34.9739 41.3889 28.7353 42.6927C24.559 43.566 17.5559 43.4244 14.5789 40.1683C9.90791 35.0554 8.6724 32.2005 8.88924 26.3526C9.05186 21.968 10.5833 8.9121 16.6784 9.60783L19.8112 9.96412Z" fill="#1E3349"/>
            <path d="M12.4905 32.2355C12.8903 30.7305 12.888 29.2177 13.0122 27.6666C13.2031 25.2568 13.0461 23.1078 12.4555 20.6475C14.5945 21.5691 17.8391 23.7496 17.8391 23.7496C16.6612 29.384 18.4568 33.7236 18.9131 34.6565C17.3038 35.8513 14.3008 38.9815 11.7993 34.4351C12.0545 33.709 12.2917 32.9773 12.4905 32.2355Z" fill="#F5928F"/>
            <path d="M13.0123 27.6666C13.2032 25.2568 13.0462 23.1078 12.4556 20.6475C14.5946 21.5691 17.8392 23.7496 17.8392 23.7496C17.7116 24.3621 17.6201 24.9601 17.5568 25.5401C16.3236 25.5389 14.0615 25.1748 13.9644 26.1301C13.9136 26.6359 12.7853 29.8729 16.3835 31.4858C17.4191 31.95 13.7893 32.7143 13.3523 31.8736C13.097 31.3835 12.9197 30.953 12.7966 30.5608C12.9073 29.6077 12.9355 28.6444 13.0123 27.6666Z" fill="#C2BEBB" fill-opacity="0.2"/>
            <path d="M25.6838 32.7113C27.6557 32.2156 36.8542 33.57 36.0546 31.1681C35.2573 28.7662 26.3705 29.662 24.7532 29.4698C23.2026 29.2843 20.4402 28.665 18.9698 29.4664C18.1917 29.889 17.8721 31.3423 18.5621 32.0088C19.3561 32.7742 20.7124 33.9589 25.6838 32.7113Z" fill="#F5928F"/>
            <path d="M35.7171 29.2667C36.86 28.6991 41.531 26.8356 43.9421 23.2018C44.3781 22.5443 45.1856 24.6618 45.1856 24.6618C44.1872 26.3747 39.8132 30.6121 37.6166 31.8439C36.5822 32.425 34.215 32.8195 33.822 32.0373C33.0733 30.5413 34.9875 29.6286 35.7171 29.2667Z" fill="#F5928F"/>
            <path d="M9.02375 54.2724C11.2113 50.0688 11.6122 46.7542 11.3209 44.2253C10.7133 38.9573 8.74819 36.7813 8.50425 33.9208C8.41729 32.9014 9.445 29.0755 9.445 29.0755C10.2988 29.0328 12.0572 28.5326 13.0137 27.666C13.0137 27.666 13.5423 31.3155 15.373 31.3268C17.2014 31.3155 17.4589 27.9324 17.4589 27.9324C17.9242 28.5798 19.1066 29.0552 19.9209 29.2654C20.6301 29.4486 21.5155 34.4334 21.4285 35.4528C21.1835 38.3133 17.3267 45.1267 21.4319 55.0535C21.4319 55.0535 19.1111 58.2074 15.129 58.3085C11.1469 58.4119 9.02375 54.2724 9.02375 54.2724Z" fill="#F5928F"/>
            <path d="M4.26426 35.299C3.39353 37.1277 -3.50794 43.3297 -1.13969 44.2446C1.23082 45.1606 6.18981 37.7661 7.36998 36.6478C8.50046 35.5744 10.7366 33.8469 11.0517 32.2093C11.2188 31.3427 10.295 30.1715 9.33957 30.2772C8.24184 30.4008 6.46198 30.6885 4.26426 35.299Z" fill="#F5928F"/>
            <path d="M9.02365 54.2724C11.2112 50.0688 11.6121 46.7542 11.3208 44.2253C11.1559 42.8024 10.8916 41.6042 10.5912 40.559C10.4116 40.1701 9.91132 39.0562 9.4449 37.7176L9.95198 35.9103C9.95198 35.9103 11.34 28.001 13.0091 27.666C13.0091 27.666 10.7538 33.6972 13.506 35.6933C15.1459 37.1241 15.9229 37.8334 16.5361 37.8907C17.1493 37.948 17.7953 37.0084 18.5723 35.6933C20.6752 32.136 17.4543 27.9324 17.4543 27.9324C18.7779 28.1976 21.267 34.5739 21.2658 36.8926C21.2647 39.0641 20.2076 40.5533 20.2076 40.5533C20.1986 40.5578 20.1884 40.5646 20.1771 40.5691C19.4589 43.787 19.0195 48.1131 20.813 53.4069L22.7419 57.3015C22.7419 57.3015 17.7863 59.6505 15.8111 62.5357C15.8111 62.5357 15.3729 62.6088 15.3571 62.7605C15.3571 62.7605 13.9759 60.8004 11.3038 59.446C8.62951 58.0927 6.63281 59.4044 6.63281 59.4044C6.63281 59.4044 6.74575 57.2677 9.02365 54.2724Z" fill="#ED3594"/>
            <path d="M9.44595 37.7107V37.7096C9.44708 37.6984 9.45386 37.6478 9.45386 37.6478C9.48096 37.4522 9.76443 36.6227 9.99143 35.6943C9.99143 35.6943 11.0383 42.1987 16.7066 40.388C17.1447 40.2475 17.7715 40.8387 18.3215 40.8713C18.5429 40.8848 19.2815 40.8095 19.5006 40.8263C19.4825 40.8342 19.4667 40.8398 19.4498 40.8466C18.3012 41.1995 17.3164 41.0736 16.7325 40.7454C16.7325 40.7454 13.5252 42.283 10.5911 40.56C10.5911 40.56 10.0253 39.3865 9.44482 37.7186C9.44482 37.7175 9.44595 37.7141 9.44595 37.7107Z" fill="#C2BEBB" fill-opacity="0.2"/>
            <path d="M10.5797 16.0441C12.7029 21.9066 14.8046 25.9709 19.313 24.6974C23.8203 23.4251 26.4381 18.7562 25.1597 14.2693C23.8813 9.7825 19.1899 7.17716 14.6816 8.44948C10.1743 9.7218 8.99075 11.6561 10.5797 16.0441Z" fill="#F5928F"/>
            <path d="M6.9287 28.2148C6.6441 26.2523 6.70509 24.2449 7.26186 22.1004C7.73619 20.2684 8.40137 18.4655 8.45332 16.6155C8.8565 2.20522 18.3973 4.87462 18.3973 4.87462C20.3962 4.20137 23.3461 4.42279 25.0525 5.80638C29.2006 9.16927 28.9928 11.9657 28.7478 16.6155C27.9572 31.563 37.8097 30.0176 37.5488 44.0536C34.0851 37.6392 29.448 39.0868 26.3197 35.4115C23.3404 31.9115 24.2315 26.567 24.8188 22.5702C25.1056 20.6202 25.1011 18.3217 24.0181 16.6402C23.3563 15.614 19.2883 14.4339 18.7903 11.7173C18.3984 14.625 15.4045 14.4968 14.6625 16.112C14.5168 16.4255 13.8833 17.4439 13.7568 16.3615C11.4337 16.7785 13.0566 19.9964 14.6501 26.8165C16.2413 33.6379 14.2096 41.9776 11.2936 44.1469C11.3445 40.9728 10.5584 38.2978 9.25629 35.4193C8.14162 32.9646 7.27541 30.6223 6.9287 28.2148Z" fill="#375571"/>
            <path d="M14.2074 16.7325C13.6281 17.0675 13.8212 16.2436 13.6608 15.8817C13.5445 15.6209 13.383 15.3568 13.1187 15.2152C12.5619 14.914 11.8572 15.0803 11.5546 15.649C11.2463 16.2267 11.3163 16.8775 11.7804 17.3586C12.1181 17.707 12.894 18.1555 13.3265 17.8306L14.2074 16.7325Z" fill="#F5928F"/>
            <path d="M13.357 16.9149C12.8623 16.8845 12.4151 16.1596 12.4331 15.7167C12.4343 15.6886 12.4715 15.6774 12.4874 15.7021C12.6172 15.9112 12.685 16.1472 12.8126 16.3552C12.9606 16.5946 13.1729 16.6968 13.375 16.8722C13.3897 16.8868 13.3773 16.916 13.357 16.9149Z" fill="#C2BEBB" fill-opacity="0.2"/>
            <path d="M12.99 16.7706C12.8263 16.6841 12.6794 16.638 12.4931 16.6211C12.361 16.6088 12.2356 16.6459 12.1091 16.5908C12.0752 16.5773 12.0775 16.5301 12.0978 16.5076C12.3361 16.2514 12.8534 16.4908 13.0713 16.6661C13.1334 16.7167 13.0544 16.8055 12.99 16.7706Z" fill="#C2BEBB" fill-opacity="0.2"/>
            <path d="M20.807 21.722C20.807 21.722 19.9962 21.2915 18.9854 21.0195C17.9735 20.7487 16.8972 20.6621 16.8972 20.6621C16.8972 20.6621 16.8408 22.5661 18.4004 22.9887C19.977 23.4158 20.807 21.722 20.807 21.722Z" fill="#EFF8F5"/>
            <path d="M22.3838 18.5608C22.3838 18.7631 22.5498 18.9294 22.7531 18.9294C22.9575 18.9294 23.1224 18.7642 23.1224 18.5608C23.1224 18.3573 22.9564 18.1943 22.7531 18.1943C22.5498 18.1932 22.3838 18.3573 22.3838 18.5608Z" fill="#080026"/>
            <path d="M17.104 16.9828C17.104 17.1862 17.27 17.3503 17.4733 17.3503C17.6766 17.3503 17.8403 17.1851 17.8403 16.9828C17.8403 16.7805 17.6766 16.6152 17.4733 16.6152C17.27 16.6152 17.104 16.7805 17.104 16.9828Z" fill="#080026"/>
            <path d="M18.0448 16.3161C17.8855 16.1441 17.6732 16.0194 17.4304 16.0565C17.2362 16.0868 17.1277 16.2554 16.9504 16.3138C16.9086 16.3284 16.8522 16.2992 16.8443 16.2531C16.7889 15.9486 17.1356 15.7519 17.3875 15.6855C17.7489 15.5889 18.099 15.7597 18.3384 16.0216C18.5191 16.2206 18.2277 16.5139 18.0448 16.3161Z" fill="#375571"/>
            <path d="M22.6494 17.3046C23.0017 17.2518 23.2976 17.381 23.5314 17.6474C23.6545 17.7868 23.8905 18.142 23.668 18.2959C23.6421 18.3128 23.6059 18.3094 23.5811 18.2959C23.458 18.2307 23.3981 18.043 23.3044 17.943C23.1756 17.8025 22.9577 17.6778 22.76 17.707C22.4992 17.7407 22.3828 17.3428 22.6494 17.3046Z" fill="#375571"/>
            <path d="M20.1016 19.5166C20.1513 19.7099 20.1468 19.9167 20.044 20.0628C19.9446 20.209 19.7662 20.291 19.5866 20.3079C19.4071 20.3281 19.2173 20.2854 19.0762 20.1741C18.935 20.0617 18.8604 19.8729 18.8537 19.6706C18.8277 19.7684 18.8232 19.8729 18.8424 19.9774C18.865 20.082 18.9169 20.1831 18.996 20.2607C19.1529 20.4214 19.3867 20.481 19.6036 20.4596C19.8181 20.4371 20.0406 20.3258 20.1468 20.1235C20.1999 20.0246 20.2157 19.9111 20.2044 19.8066C20.1886 19.7009 20.1547 19.6031 20.1016 19.5166Z" fill="#AFA8A4"/>
            <path d="M18.9123 10.3771C18.7858 11.6606 19.9513 12.5789 20.8604 13.2825C21.3404 13.6545 21.8046 14.0468 22.2857 14.4166C22.7962 14.81 23.3269 15.1764 23.8385 15.5664C24.8346 16.3251 25.8386 17.2355 26.1492 18.4954C26.3355 19.2519 26.3231 20.0757 26.2757 20.8479C26.2237 21.6807 26.0916 22.5057 25.9358 23.324C25.3745 26.2822 24.4405 29.499 25.7562 32.3977C26.6698 34.4107 28.5626 35.6538 30.4396 36.6856C32.3618 37.7432 34.4251 38.684 35.9497 40.307C36.0367 40.4003 36.118 40.4981 36.205 40.5913C36.293 40.6858 36.4195 40.7611 36.4975 40.8633C36.5505 40.9342 36.6725 40.8656 36.6183 40.7925C36.537 40.6835 36.4941 40.5441 36.4116 40.434C36.3292 40.3227 36.2332 40.2193 36.1406 40.117C35.9621 39.9203 35.7747 39.7304 35.5782 39.5528C35.1739 39.1864 34.7357 38.856 34.2828 38.5514C33.3612 37.9287 32.3731 37.4094 31.3928 36.8857C29.5327 35.8921 27.5349 34.8322 26.3852 32.9934C24.7601 30.3914 25.4253 27.2016 25.9832 24.3872C26.3017 22.78 26.6168 21.1412 26.5049 19.4946C26.4586 18.8191 26.3434 18.1717 26.0182 17.5704C25.7246 17.0275 25.3067 16.56 24.8527 16.1464C23.9108 15.2888 22.8097 14.6279 21.8362 13.8085C20.9158 13.0341 19.713 12.4002 19.1901 11.2639C19.0636 10.9885 18.997 10.6817 18.9914 10.3793C18.9902 10.3265 18.9168 10.3276 18.9123 10.3771Z" fill="#426287"/>
            <path d="M37.3352 43.0486C37.3352 42.1798 37.1872 41.3222 36.8541 40.5174C36.5548 39.797 36.111 39.1563 35.579 38.5865C34.4294 37.358 32.968 36.4599 31.6026 35.4933C30.2406 34.529 28.9577 33.4039 28.105 31.954C27.3495 30.6682 27.0163 29.2093 27.0095 27.7268C27.0061 26.8759 27.0976 26.0262 27.2456 25.1889C27.3314 24.7011 27.4488 24.2189 27.5381 23.7311C27.642 23.1669 27.7086 22.5914 27.7222 22.0182C27.7289 21.7327 27.7131 21.4506 27.6905 21.1662C27.6849 21.1021 27.5957 21.1021 27.59 21.1662C27.5403 21.7529 27.5019 22.3441 27.4184 22.9275C27.3404 23.4692 27.2015 23.9952 27.092 24.5313C26.9158 25.3901 26.7882 26.2622 26.7498 27.1378C26.6843 28.6349 26.9056 30.1388 27.5607 31.4976C28.2586 32.9476 29.3958 34.1367 30.6619 35.1145C32.0329 36.1711 33.5564 37.0253 34.8472 38.1852C35.4345 38.7123 35.963 39.3047 36.3673 39.9835C36.7987 40.7096 37.0483 41.5189 37.1296 42.3573C37.1522 42.5877 37.1624 42.8182 37.1635 43.0497C37.1635 43.1587 37.3352 43.1587 37.3352 43.0486Z" fill="#426287"/>
            <path d="M36.5129 38.9845C36.3898 38.318 36.0916 37.6796 35.8138 37.0636C35.5304 36.4353 35.2141 35.8217 34.881 35.2181C34.2011 33.9874 33.4512 32.7971 32.7002 31.6079C31.9503 30.4199 31.1925 29.2353 30.5228 28C29.8621 26.7828 29.2839 25.5172 28.8932 24.1887C28.6989 23.5289 28.5453 22.859 28.4504 22.1779C28.3522 21.4642 28.3353 20.7482 28.3353 20.0289C28.3353 19.8468 28.3307 19.6647 28.3262 19.4827C28.324 19.4074 28.2054 19.3838 28.1884 19.4647C28.0405 20.1728 28.0552 20.9033 28.1128 21.6216C28.1692 22.3229 28.2844 23.0198 28.4516 23.7031C28.7802 25.0451 29.3189 26.3309 29.9468 27.5606C30.5906 28.8194 31.3292 30.031 32.0926 31.2202C32.8617 32.4161 33.6522 33.6007 34.3773 34.8236C35.0922 36.0285 35.7393 37.2704 36.2452 38.5765C36.3028 38.726 36.3796 38.8676 36.4519 39.0115C36.4688 39.0474 36.5185 39.0204 36.5129 38.9845Z" fill="#426287"/>
            <path d="M33.8795 36.1559C33.1567 34.6161 31.9822 33.346 31.1419 31.8725C30.7105 31.115 30.3525 30.3102 30.0149 29.5077C29.6873 28.7288 29.3903 27.9375 29.1204 27.1384C28.9646 26.6776 28.8189 26.2123 28.6777 25.7469C28.6077 25.5177 28.5388 25.2884 28.4722 25.058C28.4021 24.8174 28.3457 24.5724 28.2406 24.3442C28.2113 24.2813 28.0995 24.3105 28.1063 24.3802C28.1514 24.8096 28.3141 25.24 28.436 25.6536C28.558 26.0661 28.6879 26.4753 28.8223 26.8833C29.0933 27.7015 29.3903 28.5108 29.7201 29.3065C30.0476 30.0978 30.3988 30.8857 30.7998 31.6432C31.1962 32.3929 31.6852 33.0875 32.1832 33.7731C32.7558 34.561 33.3306 35.35 33.8546 36.1694C33.8648 36.1863 33.8874 36.1728 33.8795 36.1559Z" fill="#426287"/>
            <path d="M27.5552 20.2485C27.5202 19.2786 27.3033 18.3254 26.8437 17.4656C26.4236 16.6788 25.8386 15.991 25.1982 15.3717C23.8498 14.069 22.2596 13.0338 20.9756 11.6604C20.6108 11.2703 20.2743 10.8556 19.9817 10.4094C19.678 9.94632 19.4453 9.44278 19.1743 8.96061C19.1291 8.8808 19.0116 8.93588 19.0297 9.0213C19.137 9.51809 19.3663 9.95306 19.6339 10.3824C19.8835 10.7825 20.1681 11.1602 20.4764 11.5165C21.093 12.2302 21.8034 12.854 22.5307 13.4519C23.9198 14.595 25.458 15.6639 26.4383 17.2037C27.021 18.1198 27.3587 19.1662 27.4163 20.2485C27.4197 20.3384 27.5586 20.3396 27.5552 20.2485Z" fill="#426287"/>
            <path d="M18.5035 5.60677C18.971 5.45729 19.4386 5.34264 19.931 5.32466C20.4674 5.30443 20.9994 5.3595 21.5223 5.47414C22.6064 5.7113 23.6499 6.16875 24.5704 6.78581C24.9815 7.0623 25.37 7.37476 25.7065 7.73892C26.139 8.20537 26.4643 8.78758 26.7376 9.35855C27.0357 9.98122 27.2616 10.6376 27.4389 11.3041C27.6241 12.001 27.7653 12.7102 27.8003 13.4318C27.8398 14.232 27.771 15.0323 27.7009 15.8292C27.6659 16.2203 27.6287 16.6126 27.6095 17.0048C27.5993 17.2083 27.6004 17.4117 27.6038 17.6152C27.6072 17.813 27.6399 18.0029 27.6693 18.1985C27.6783 18.2558 27.7608 18.2367 27.7642 18.1861C27.7789 17.9951 27.8071 17.8074 27.815 17.6163C27.8229 17.4297 27.8376 17.2431 27.85 17.0565C27.876 16.689 27.902 16.3215 27.9347 15.9551C27.9991 15.2369 28.0646 14.5175 28.0476 13.7948C28.0307 13.0508 27.911 12.3258 27.7371 11.6042C27.5733 10.922 27.3599 10.2521 27.0809 9.60807C26.8065 8.97191 26.4654 8.35148 26.0363 7.80524C25.7325 7.41859 25.3428 7.09377 24.9476 6.80266C24.0475 6.14065 23.0028 5.64836 21.922 5.3595C21.3212 5.19877 20.6967 5.10099 20.0744 5.11335C19.5256 5.12347 18.9281 5.21788 18.4617 5.52023C18.4188 5.54495 18.447 5.62476 18.5035 5.60677Z" fill="#426287"/>
            <path d="M27.1429 16.9472C26.9599 15.8794 26.8278 14.8071 26.6776 13.7349C26.5262 12.6638 26.297 11.5994 25.7933 10.6328C25.4003 9.87859 24.8785 9.19072 24.2393 8.62537C23.6441 8.09936 22.9586 7.68237 22.2381 7.34743C21.8213 7.15411 21.3933 6.98327 20.9574 6.83828C20.736 6.76522 20.5136 6.69216 20.2888 6.62922C20.168 6.5955 20.0471 6.56515 19.9252 6.53481C19.8088 6.50558 19.6857 6.50896 19.5672 6.49547C19.5096 6.48873 19.4858 6.58089 19.5367 6.60562C19.627 6.64833 19.7128 6.70565 19.8043 6.74386C19.9014 6.78433 20.0053 6.81243 20.1047 6.84614C20.3024 6.91358 20.5011 6.9754 20.6988 7.04284C21.0828 7.17434 21.4667 7.31146 21.8405 7.46769C22.5543 7.76554 23.2432 8.1387 23.8451 8.6265C24.4934 9.15026 25.0321 9.79204 25.4466 10.5125C25.9728 11.4285 26.2405 12.4378 26.4065 13.473C26.5929 14.6363 26.6245 15.8637 27.0582 16.9708C27.0796 17.0213 27.1519 17.0011 27.1429 16.9472Z" fill="#426287"/>
            <path d="M25.7325 14.1319C25.8138 13.8531 25.7822 13.5485 25.7381 13.2653C25.6918 12.963 25.6003 12.6651 25.4897 12.3807C25.2604 11.7884 24.9295 11.2354 24.5399 10.7353C23.7132 9.67425 22.6505 8.79981 21.5256 8.06923C21.2185 7.87029 20.9056 7.68147 20.5849 7.50388C20.2958 7.34316 19.9897 7.1622 19.6588 7.10825C19.6046 7.09926 19.5493 7.16557 19.599 7.20941C19.8169 7.39935 20.0846 7.52524 20.3376 7.66124C20.6109 7.80848 20.8785 7.96358 21.1428 8.12656C21.7063 8.47498 22.2507 8.85938 22.7612 9.28199C23.7392 10.0912 24.6528 11.0623 25.196 12.22C25.3395 12.5246 25.4524 12.8438 25.5281 13.172C25.6015 13.489 25.6229 13.8172 25.7009 14.1319C25.7054 14.1476 25.7291 14.1465 25.7325 14.1319Z" fill="#426287"/>
            <path d="M24.5882 13.1967C24.0857 12.4549 23.512 11.7501 22.9473 11.0533C22.3803 10.3531 21.7671 9.67868 21.0579 9.11557C20.8681 8.96496 20.6728 8.8211 20.4695 8.68959C20.282 8.56708 20.0279 8.40523 19.7975 8.39849C19.732 8.39624 19.7151 8.47154 19.749 8.51425C19.8709 8.66824 20.09 8.77838 20.2549 8.88291C20.4379 8.99868 20.6163 9.12007 20.7891 9.25045C21.1392 9.5157 21.4656 9.81243 21.775 10.1238C22.4029 10.7543 22.9654 11.4467 23.5391 12.1255C23.8609 12.5077 24.1749 12.8932 24.5453 13.2293C24.5668 13.2484 24.6052 13.2225 24.5882 13.1967Z" fill="#426287"/>
            <path d="M18.6195 9.06317C18.5009 9.28572 18.4637 9.5431 18.4207 9.78813C18.3733 10.059 18.336 10.331 18.2886 10.6007C18.1949 11.1369 18.0706 11.6786 17.8165 12.1642C17.3501 13.0555 16.4534 13.577 15.6753 14.1671C15.4585 14.3312 15.2371 14.4975 15.044 14.6886C14.8656 14.8662 14.6453 15.0853 14.5674 15.3292C14.5459 15.3944 14.6295 15.463 14.6894 15.4225C14.8814 15.2899 15.035 15.0943 15.21 14.9404C15.4009 14.7729 15.5917 14.6065 15.7927 14.4514C16.1858 14.1491 16.5957 13.867 16.974 13.5455C17.3524 13.2252 17.7047 12.8599 17.9509 12.4272C18.2208 11.9529 18.3631 11.4201 18.4603 10.8862C18.5134 10.5906 18.5563 10.2917 18.5947 9.99381C18.6331 9.69371 18.6952 9.38013 18.6737 9.07778C18.6703 9.05081 18.6331 9.0362 18.6195 9.06317Z" fill="#426287"/>
            <path d="M18.1952 5.74189C17.7005 5.5969 17.1788 5.55643 16.6638 5.55868C16.2098 5.56093 15.7558 5.60926 15.3142 5.71266C14.5135 5.90149 13.7749 6.28476 13.1481 6.81302C12.5055 7.35477 11.9917 8.03589 11.5761 8.76084C11.1209 9.55773 10.7753 10.4153 10.4941 11.2864C10.1903 12.226 9.95995 13.1881 9.7657 14.1558C9.57145 15.1258 9.4156 16.1037 9.27217 17.0815C9.13778 17.9964 9.01581 18.9136 8.87916 19.8285C8.81817 20.2353 8.75606 20.6422 8.68604 21.048C8.60247 21.5301 8.49292 22.0067 8.40144 22.4878C8.09539 24.1096 8.02198 25.7686 8.23091 27.4073C8.43871 29.0404 8.90287 30.6218 9.52289 32.1448C9.68213 32.5348 9.85379 32.9181 10.0469 33.2924C10.0853 33.3666 10.2152 33.3149 10.1847 33.2351C9.8888 32.4393 9.56467 31.6548 9.30153 30.8466C9.05308 30.0835 8.83172 29.3124 8.67249 28.5245C8.35401 26.9454 8.28738 25.3258 8.47372 23.7252C8.59908 22.6417 8.87125 21.583 9.03953 20.5062C9.17618 19.6318 9.2846 18.754 9.40205 17.8773C9.53079 16.923 9.66632 15.9688 9.83346 15.019C10.004 14.0524 10.2039 13.0903 10.4648 12.1428C10.711 11.2504 11.0091 10.3692 11.4089 9.53188C11.7726 8.76983 12.2209 8.03814 12.8003 7.41883C13.3446 6.83775 14.0042 6.36456 14.7529 6.08132C15.5988 5.76099 16.5091 5.68007 17.4058 5.75987C17.6655 5.78347 17.923 5.8127 18.1828 5.83293C18.237 5.83742 18.2449 5.7565 18.1952 5.74189Z" fill="#426287"/>
            <path d="M11.786 43.142C12.2998 41.1526 11.9847 39.0272 11.3534 37.1052C10.7154 35.163 9.73847 33.3681 8.90501 31.5068C8.66445 30.9696 8.43407 30.4278 8.22514 29.8782C8.12349 29.6118 8.02637 29.3432 7.93489 29.0734C7.84116 28.7947 7.76888 28.5081 7.64691 28.2395C7.61303 28.1664 7.47864 28.2001 7.48993 28.2822C7.55543 28.7823 7.77001 29.2802 7.94506 29.7523C8.12124 30.2255 8.31436 30.6931 8.51538 31.1573C8.92195 32.0946 9.35788 33.0208 9.78703 33.948C10.6227 35.7565 11.4427 37.6099 11.7295 39.5959C11.8097 40.1534 11.847 40.7176 11.8402 41.2808C11.8334 41.8956 11.7566 42.5025 11.6651 43.1094C11.6527 43.187 11.7657 43.2218 11.786 43.142Z" fill="#426287"/>
            <path d="M12.5277 41.4616C12.6949 41.1053 12.8022 40.7265 12.9128 40.3489C13.0247 39.969 13.1297 39.5868 13.2302 39.2035C13.4256 38.4539 13.5927 37.6974 13.7328 36.9354C14.0106 35.4135 14.1721 33.8748 14.2252 32.3294C14.2782 30.7862 14.1077 29.2621 13.7937 27.7526C13.4877 26.2791 13.0642 24.8326 12.6802 23.3782C12.4645 22.5599 12.2657 21.7383 12.0952 20.91C12.0048 20.4716 11.9811 20.031 11.9337 19.586C11.893 19.1959 11.8287 18.7969 11.6401 18.4496C11.596 18.3676 11.4774 18.426 11.4955 18.5103C11.57 18.8677 11.6243 19.2229 11.6581 19.586C11.692 19.9535 11.692 20.3289 11.7564 20.6931C11.8897 21.4371 12.0624 22.1722 12.2533 22.9039C12.6271 24.3437 13.0608 25.7689 13.4007 27.2176C13.7497 28.7035 13.9891 30.2186 13.9835 31.7483C13.9778 33.296 13.8333 34.8527 13.5916 36.3801C13.4606 37.2108 13.2946 38.0346 13.1048 38.8529C13.0077 39.271 12.9038 39.6868 12.7931 40.1016C12.6746 40.5433 12.53 40.9816 12.4555 41.4335C12.4498 41.4717 12.5074 41.5054 12.5277 41.4616Z" fill="#426287"/>
            <path d="M10.8612 18.2538C10.318 20.749 11.0194 23.2982 11.6123 25.7147C11.9127 26.9398 12.1645 28.1717 12.3881 29.4125C12.6287 30.7444 12.8252 32.0875 12.8918 33.4408C12.9291 34.1961 12.9325 34.957 12.8737 35.7123C12.8162 36.4575 12.6603 37.1757 12.5124 37.9063C12.4965 37.9838 12.6016 38.0108 12.6298 37.9389C12.8681 37.342 12.9743 36.6857 13.0556 36.0517C13.1403 35.3852 13.1764 34.712 13.1651 34.041C13.1425 32.6945 12.9765 31.3536 12.7574 30.0251C12.5508 28.7707 12.3091 27.5198 12.0075 26.2857C11.7015 25.0324 11.3638 23.786 11.1221 22.5181C10.8556 21.1188 10.6467 19.6824 10.8996 18.2662C10.903 18.2392 10.8669 18.228 10.8612 18.2538Z" fill="#426287"/>
            <path d="M12.0886 36.7753C12.197 35.7311 11.9768 34.6836 11.6956 33.681C11.4064 32.6537 11.027 31.6545 10.6904 30.6418C10.3347 29.5707 10.058 28.4951 9.92134 27.3722C9.78356 26.2325 9.75532 25.0816 9.77904 23.934C9.79259 23.2743 9.82534 22.6156 9.86713 21.9581C9.88746 21.631 9.90666 21.304 9.92698 20.9769C9.94618 20.651 9.98797 20.3284 9.93037 20.0047C9.92134 19.9518 9.84793 19.962 9.83325 20.0047C9.73951 20.2756 9.72709 20.5554 9.70111 20.8398C9.67401 21.1399 9.64578 21.44 9.62545 21.7401C9.58592 22.3178 9.55204 22.8966 9.53058 23.4755C9.4888 24.632 9.50122 25.7908 9.6198 26.944C9.73499 28.0668 9.95861 29.1582 10.3019 30.2327C10.6249 31.2431 11.0089 32.2334 11.3263 33.2449C11.6876 34.3981 11.9124 35.567 11.9779 36.7741C11.9813 36.8472 12.0818 36.845 12.0886 36.7753Z" fill="#426287"/>
            <path d="M10.3121 23.0798C10.3256 23.3788 10.3245 23.671 10.3629 23.97C10.3979 24.2487 10.4374 24.5264 10.4792 24.804C10.5673 25.3907 10.6746 25.974 10.7841 26.5574C11.0032 27.7252 11.237 28.8907 11.4437 30.0607C11.56 30.7194 11.6707 31.3791 11.7723 32.0412C11.778 32.0771 11.8378 32.0681 11.8356 32.0322C11.7023 29.6763 11.1004 27.37 10.7085 25.0501C10.6543 24.7276 10.6001 24.405 10.5526 24.0813C10.5029 23.7418 10.4284 23.4092 10.3731 23.072C10.3663 23.0371 10.3098 23.0461 10.3121 23.0798Z" fill="#426287"/>
            <path d="M18.1059 6.62357C17.6699 6.59547 17.2385 6.64155 16.8094 6.71461C16.4435 6.77643 16.073 6.8596 15.7252 6.98998C15.0543 7.2395 14.4569 7.66436 13.9668 8.17913C13.331 8.84676 12.8623 9.65826 12.4038 10.4507C11.8515 11.4049 11.3648 12.3996 10.9796 13.4325C10.7639 14.0091 10.5866 14.6037 10.4568 15.205C10.3269 15.8018 10.2117 16.4222 10.2264 17.0348C10.2275 17.0775 10.2941 17.0899 10.3043 17.0449C10.4138 16.5155 10.4895 15.9794 10.616 15.4523C10.7391 14.9409 10.887 14.4351 11.061 13.9383C11.4223 12.9088 11.8684 11.9174 12.3959 10.9621C12.6488 10.5035 12.9199 10.055 13.1932 9.60881C13.4111 9.25363 13.6483 8.9097 13.9148 8.58825C14.3677 8.04313 14.9109 7.58568 15.5546 7.27996C15.9239 7.10575 16.3102 6.96863 16.7077 6.87534C17.1708 6.76744 17.6428 6.72136 18.1092 6.63256C18.1138 6.63369 18.1115 6.62469 18.1059 6.62357Z" fill="#426287"/>
            <path d="M18.4051 7.77127C17.9003 8.69179 17.5152 9.66851 17.0601 10.6126C16.5914 11.5826 16.0459 12.5638 15.2576 13.3169C14.8443 13.7114 14.3598 13.9811 13.8538 14.2374C13.7985 14.2655 13.8403 14.3363 13.8922 14.3284C14.3993 14.2531 14.8386 13.9643 15.2215 13.6372C15.6303 13.2888 15.977 12.8707 16.2785 12.4278C16.9155 11.4904 17.3718 10.4474 17.7986 9.40326C18.0177 8.866 18.2142 8.32088 18.4243 7.78026C18.4288 7.76902 18.4108 7.76115 18.4051 7.77127Z" fill="#426287"/>
            <path d="M18.1826 7.37211C17.9443 7.38335 17.7082 7.49012 17.4903 7.57891C17.2599 7.67333 17.0329 7.7801 16.8093 7.88688C16.3214 8.12066 15.8493 8.39603 15.3976 8.69388C14.5178 9.27497 13.6957 9.98082 13.1253 10.8755C12.8091 11.3723 12.5912 11.9174 12.4861 12.4962C12.4658 12.6053 12.6284 12.6536 12.6555 12.5423C13.1536 10.4956 14.9831 9.11986 16.7607 8.18473C17.008 8.05435 17.2542 7.92509 17.505 7.80258C17.7376 7.69019 18.0053 7.58229 18.1973 7.40695C18.2119 7.39683 18.2018 7.37098 18.1826 7.37211Z" fill="#426287"/>
            <path d="M16.5574 9.29537C15.9306 10.0552 15.2225 10.7554 14.5472 11.4725C14.2072 11.8344 13.8605 12.1907 13.5217 12.5537C13.3501 12.7369 13.1807 12.9235 13.0135 13.1112C12.8735 13.2697 12.6691 13.4529 12.5957 13.6541C12.5776 13.7035 12.6363 13.7316 12.6747 13.7148C12.7775 13.6709 12.8644 13.5799 12.948 13.5057C13.0417 13.4214 13.131 13.3304 13.2202 13.2405C13.3986 13.064 13.5748 12.8853 13.7465 12.7021C14.0796 12.3458 14.4083 11.985 14.7301 11.6186C15.0509 11.2544 15.3626 10.8813 15.6664 10.5025C15.9781 10.1136 16.2717 9.71124 16.5789 9.31898C16.5924 9.30212 16.571 9.27964 16.5574 9.29537Z" fill="#426287"/>
        </g>
    </g>
    <defs>
        <clipPath id="clip0_532_24739">
            <rect width="40" height="40" rx="20" fill="white"/>
        </clipPath>
        <clipPath id="clip1_532_24739">
            <rect width="69" height="125" fill="white" transform="translate(-15)"/>
        </clipPath>
    </defs>
</svg>
