<svg width="80" height="80" viewBox="0 0 80 80" fill="none" xmlns="http://www.w3.org/2000/svg">
<path d="M66.8717 41.5916H64.5416C64.5681 41.0562 64.5828 40.5241 64.5828 40.0004C64.5828 38.8209 64.5173 37.6563 64.3934 36.5091L74.0305 31.8718L73.7331 32.4876C73.433 33.1093 73.6936 33.8566 74.3153 34.1568C74.4905 34.2413 74.6756 34.2815 74.858 34.2815C75.3227 34.2815 75.7689 34.0212 75.9845 33.5748L77.8369 29.7382C77.9994 29.4016 78.0028 29.0099 77.8461 28.6705C77.6894 28.3312 77.3889 28.0798 77.0272 27.9852L72.9053 26.9084C72.2372 26.7343 71.5544 27.1338 71.38 27.8018C71.2055 28.4698 71.6055 29.1527 72.2734 29.3273L73.1028 29.5438L64.0066 33.921C61.1542 19.0121 48.0191 7.70898 32.2914 7.70898C14.4858 7.70898 0 22.1949 0 40.0004C0 57.8059 14.4858 72.2916 32.2914 72.2916C33.2706 72.2916 34.2645 72.2435 35.2553 72.1527C35.4266 72.2409 35.6203 72.2916 35.8261 72.2916H43.115C43.8053 72.2916 44.365 71.732 44.365 71.0416V69.9551C45.0719 69.6699 45.7695 69.3598 46.4544 69.0252V71.0416C46.4544 71.732 47.0141 72.2916 47.7044 72.2916H54.9934C55.6838 72.2916 56.2434 71.732 56.2434 71.0416V61.6485C56.9837 60.8301 57.6814 59.9763 58.3328 59.0901V71.0416C58.3328 71.732 58.8925 72.2916 59.5828 72.2916H66.8717C67.562 72.2916 68.1217 71.732 68.1217 71.0416V42.8416C68.1217 42.1513 67.562 41.5916 66.8717 41.5916ZM31.0414 10.2371V38.7509L2.52766 38.7637C3.16156 23.3229 15.6023 10.8777 31.0414 10.2371ZM2.52859 41.2635L30.1059 41.2512L16.1347 65.0187C8.26734 59.9205 2.94594 51.2155 2.52859 41.2635ZM41.865 69.7916H37.0761V53.9138H41.865V69.7916ZM53.7434 69.7916H48.9544V49.0027H53.7434V69.7916ZM56.2434 57.7105V47.7529C56.2434 47.0626 55.6838 46.5029 54.9934 46.5029H47.7044C47.0141 46.5029 46.4544 47.0626 46.4544 47.7529V66.2149C45.7733 66.5835 45.0756 66.9271 44.365 67.2424V52.664C44.365 51.9737 43.8053 51.414 43.115 51.414H35.8261C35.1358 51.414 34.5761 51.9737 34.5761 52.664V69.701C33.8112 69.7596 33.0464 69.7918 32.2914 69.7918C27.2327 69.7918 22.4652 68.5229 18.2883 66.2888L33.3691 40.6338C33.482 40.4418 33.5416 40.2232 33.5416 40.0004V10.2371C47.72 10.8254 59.3695 21.3691 61.6687 35.046L59.8975 35.8984L57.6402 32.4099C57.3123 31.9035 56.6697 31.7035 56.1123 31.9341L37.9389 39.4632C37.3011 39.7273 36.9983 40.4587 37.2625 41.0963C37.4619 41.5777 37.9272 41.8682 38.4178 41.8682C38.5772 41.8682 38.7394 41.8376 38.8958 41.7727L56.107 34.6423L58.397 38.1815C58.7392 38.7101 59.4211 38.9018 59.9886 38.6288L61.9919 37.6649C62.0519 38.4357 62.0831 39.2145 62.0831 40.0004C62.0831 40.5232 62.0669 41.0555 62.038 41.5916H59.5831C58.8928 41.5916 58.3331 42.1513 58.3331 42.8416V54.4748C57.7081 55.5959 57.0098 56.6766 56.2434 57.7105ZM65.6217 69.7916H60.8328V44.0916H65.6217V69.7916ZM78.75 36.6804H71.4609C70.7706 36.6804 70.2109 37.2401 70.2109 37.9304V71.0416C70.2109 71.732 70.7706 72.2916 71.4609 72.2916H78.75C79.4403 72.2916 80 71.732 80 71.0416V37.9304C80 37.2401 79.4403 36.6804 78.75 36.6804ZM77.5 69.7916H72.7109V39.1804H77.5V69.7916Z" fill="url(#paint0_linear_529_3757)"/>
<defs>
<linearGradient id="paint0_linear_529_3757" x1="17.8742" y1="71.2287" x2="69.1936" y2="19.9093" gradientUnits="userSpaceOnUse">
<stop stop-color="#FCC60E"/>
<stop offset="1" stop-color="#E92E29"/>
</linearGradient>
</defs>
</svg>
