<svg width="20" height="20" viewBox="0 0 20 20" fill="none" xmlns="http://www.w3.org/2000/svg">
    <path d="M20 10C20 4.47715 15.5228 0 10 0C4.47715 0 0 4.47715 0 10C0 15.5228 4.47715 20 10 20C15.5228 20 20 15.5228 20 10Z" fill="#7289DA"/>
    <path d="M15.0155 6.57517C14.098 5.84121 12.9971 5.47425 11.835 5.41309L11.6515 5.59659C12.6913 5.84121 13.6087 6.3305 14.465 7.00329C13.4252 6.45284 12.2632 6.08588 11.0399 5.96354C10.673 5.90238 10.3671 5.90238 10.0002 5.90238C9.6332 5.90238 9.32737 5.90238 8.96041 5.96354C7.73716 6.08588 6.57508 6.45284 5.53533 7.00329C6.39158 6.3305 7.30904 5.84121 8.34879 5.59659L8.16529 5.41309C7.0032 5.47425 5.90229 5.84121 4.98487 6.57517C3.94512 8.53238 3.39466 10.7342 3.3335 12.9972C4.25091 13.9758 5.53533 14.5874 6.88091 14.5874C6.88091 14.5874 7.30904 14.0981 7.61483 13.67C6.81975 13.4865 6.08579 13.0583 5.5965 12.3856C6.02462 12.6302 6.45275 12.8749 6.88091 13.0583C7.43137 13.303 7.98183 13.4253 8.53229 13.5477C9.02158 13.6088 9.51087 13.67 10.0002 13.67C10.4895 13.67 10.9787 13.6088 11.468 13.5477C12.0185 13.4253 12.569 13.303 13.1194 13.0583C13.5476 12.8749 13.9757 12.6302 14.4038 12.3856C13.9145 13.0583 13.1806 13.4865 12.3855 13.67C12.6913 14.0981 13.1194 14.5874 13.1194 14.5874C14.465 14.5874 15.7494 13.9758 16.6668 12.9972C16.6057 10.7342 16.0552 8.53238 15.0155 6.57517ZM7.98183 11.8963C7.3702 11.8963 6.81975 11.3458 6.81975 10.673C6.81975 10.0003 7.3702 9.44979 7.98183 9.44979C8.59345 9.44979 9.14391 10.0003 9.14391 10.673C9.14391 11.3458 8.59345 11.8963 7.98183 11.8963ZM12.0185 11.8963C11.4069 11.8963 10.8564 11.3458 10.8564 10.673C10.8564 10.0003 11.4069 9.44979 12.0185 9.44979C12.6301 9.44979 13.1806 10.0003 13.1806 10.673C13.1806 11.3458 12.6301 11.8963 12.0185 11.8963Z" fill="white"/>
</svg>
