<svg width="80" height="80" viewBox="0 0 80 80" fill="none" xmlns="http://www.w3.org/2000/svg">
<path d="M51.25 12.5C51.2501 12.6642 51.2178 12.8268 51.1551 12.9785C51.0923 13.1302 51.0002 13.268 50.8841 13.3841C50.768 13.5002 50.6302 13.5923 50.4785 13.655C50.3268 13.7178 50.1642 13.7501 50 13.75H20C19.6685 13.75 19.3505 13.6183 19.1161 13.3839C18.8817 13.1495 18.75 12.8315 18.75 12.5C18.75 12.1685 18.8817 11.8505 19.1161 11.6161C19.3505 11.3817 19.6685 11.25 20 11.25H50C50.1642 11.2499 50.3268 11.2822 50.4785 11.345C50.6302 11.4077 50.768 11.4998 50.8841 11.6159C51.0002 11.732 51.0923 11.8698 51.1551 12.0215C51.2178 12.1732 51.2501 12.3358 51.25 12.5ZM77.5 10V47.5C77.4989 48.4942 77.1035 49.4474 76.4004 50.1504C75.6974 50.8535 74.7442 51.2489 73.75 51.25H68.4975C68.6052 50.4265 68.682 49.5936 68.7184 48.75H73.75C74.0815 48.7498 74.3993 48.618 74.6336 48.3836C74.868 48.1493 74.9998 47.8315 75 47.5V18.75H5V48.75H11.2816C11.318 49.5936 11.3941 50.4265 11.5025 51.25H3.75C3.41848 51.25 3.10054 51.1183 2.86612 50.8839C2.6317 50.6495 2.5 50.3315 2.5 50V10C2.50109 9.00577 2.89653 8.05258 3.59956 7.34956C4.30258 6.64653 5.25577 6.25109 6.25 6.25H73.75C74.7442 6.25109 75.6974 6.64653 76.4004 7.34956C77.1035 8.05258 77.4989 9.00577 77.5 10ZM75 10C74.9998 9.66855 74.868 9.35074 74.6336 9.11637C74.3993 8.882 74.0815 8.75023 73.75 8.75H6.25C5.91858 8.75033 5.60083 8.88213 5.36648 9.11648C5.13213 9.35083 5.00033 9.66858 5 10V16.25H75V10ZM70.625 10.625C70.2542 10.625 69.8916 10.735 69.5833 10.941C69.275 11.147 69.0346 11.4399 68.8927 11.7825C68.7508 12.1251 68.7137 12.5021 68.786 12.8658C68.8584 13.2295 69.0369 13.5636 69.2992 13.8258C69.5614 14.088 69.8955 14.2666 70.2592 14.339C70.6229 14.4113 70.9999 14.3742 71.3425 14.2323C71.6851 14.0904 71.978 13.85 72.184 13.5417C72.39 13.2334 72.5 12.8708 72.5 12.5C72.5 12.0027 72.3025 11.5258 71.9508 11.1742C71.5992 10.8225 71.1223 10.625 70.625 10.625ZM65.6721 42.0086C66.8136 47.3199 66.2799 52.8544 64.1447 57.8497C62.0094 62.845 58.3777 67.0552 53.7498 69.9004C49.1219 72.7455 43.7256 74.0855 38.3044 73.7358C32.8832 73.3861 27.7037 71.3639 23.4797 67.9478C19.2599 64.5303 16.2024 59.8894 14.7278 54.6633C13.2531 49.4372 13.4337 43.8826 15.2447 38.7634C17.0558 33.6442 20.4083 29.2117 24.8412 26.0756C29.2742 22.9394 34.5699 21.2536 40 21.25C45.9954 21.2994 51.7972 23.3786 56.4593 27.1484C61.1215 30.9183 64.3689 36.1564 65.6721 42.0086ZM46.895 24.771C42.2009 23.3537 37.1834 23.4223 32.5297 24.9672C27.876 26.5121 23.8137 29.4578 20.899 33.401C17.9844 37.3441 16.36 42.0919 16.2483 46.9941C16.1366 51.8962 17.543 56.713 20.275 60.7849C22.4008 63.9409 25.2534 66.5404 28.5928 68.3646C31.9323 70.1888 35.661 71.1844 39.4653 71.2676C43.2696 71.3509 47.0383 70.5194 50.4544 68.8431C53.8705 67.1667 56.8341 64.6946 59.0959 61.6346C61.3578 58.5746 62.8517 55.0161 63.4521 51.2586C64.0526 47.501 63.7419 43.6542 62.5462 40.0417C61.3506 36.4292 59.3049 33.1567 56.5813 30.4993C53.8577 27.8419 50.5358 25.8774 46.895 24.771ZM61.875 47.5C61.875 48.5956 62.1475 51.25 60.4625 51.25H54.775C52.8898 51.25 53.75 48.5971 53.75 47.5C53.7442 44.226 52.5712 41.0613 50.4416 38.5745C48.312 36.0877 45.3655 34.4418 42.1314 33.9324L44.4375 50.3375C44.825 53.2445 41.5959 55.448 38.9815 54.8329C37.8478 54.5406 36.8708 53.8216 36.2547 52.8261C35.6386 51.8305 35.431 50.6354 35.6752 49.4904L37.8676 33.9333C34.6338 34.4429 31.6876 36.0888 29.5583 38.5754C27.4289 41.0619 26.256 44.2263 26.25 47.5C26.25 48.5957 27.1147 51.25 25.225 51.25H19.5375C17.8576 51.25 18.125 48.5946 18.125 47.5C18.125 31.8489 31.9791 25.625 40 25.625C48.4896 25.625 61.875 32.4479 61.875 47.5ZM28.5679 35.9667L26.3589 33.7582C24.5413 35.5554 23.0986 37.6954 22.1143 40.0543C21.1301 42.4132 20.6238 44.944 20.625 47.5C20.625 47.9029 20.6402 48.3166 20.6714 48.75H23.8042C23.7677 48.324 23.75 47.9089 23.75 47.5C23.7491 45.3543 24.1745 43.2298 25.0016 41.2499C25.8287 39.27 27.0409 37.4742 28.5679 35.9667ZM41.8469 49.8194L40 36.7151L38.053 50.5737C38.0723 51.0774 38.2859 51.5541 38.6488 51.9038C39.0117 52.2536 39.496 52.4493 40 52.45C41.5518 52.45 42.0149 51.0851 41.8469 49.8194ZM51.7375 32.1205C48.3727 29.5294 44.2451 28.1245 39.9983 28.125C35.7514 28.1256 31.6241 29.5314 28.26 32.1234L30.4893 34.3524C32.7755 32.6844 35.4603 31.647 38.2741 31.3444C38.3793 30.9672 38.6051 30.6348 38.917 30.398C39.2289 30.1612 39.6097 30.033 40.0013 30.033C40.3929 30.033 40.7737 30.1612 41.0856 30.398C41.3975 30.6348 41.6233 30.9672 41.7285 31.3444C44.5401 31.6474 47.2227 32.6839 49.5076 34.35L51.7375 32.1205ZM59.375 47.5C59.3761 44.9432 58.8695 42.4116 57.8846 40.0521C56.8997 37.6926 55.4561 35.5522 53.6375 33.755L51.4286 35.9639C52.9566 37.4714 54.1697 39.2675 54.9974 41.2479C55.8251 43.2284 56.2509 45.3536 56.25 47.5C56.25 47.9077 56.2318 48.3228 56.1951 48.75H59.3286C59.3604 48.3166 59.375 47.9029 59.375 47.5ZM65.625 10.625C65.2542 10.625 64.8916 10.735 64.5833 10.941C64.275 11.147 64.0346 11.4399 63.8927 11.7825C63.7508 12.1251 63.7137 12.5021 63.786 12.8658C63.8584 13.2295 64.0369 13.5636 64.2992 13.8258C64.5614 14.088 64.8955 14.2666 65.2592 14.339C65.6229 14.4113 65.9999 14.3742 66.3425 14.2323C66.6851 14.0904 66.978 13.85 67.184 13.5417C67.39 13.2334 67.5 12.8708 67.5 12.5C67.5 12.0027 67.3025 11.5258 66.9508 11.1742C66.5992 10.8225 66.1223 10.625 65.625 10.625Z" fill="url(#paint0_linear_529_3755)"/>
<defs>
<linearGradient id="paint0_linear_529_3755" x1="40" y1="75.8447" x2="40" y2="4.05156" gradientUnits="userSpaceOnUse">
<stop stop-color="#E93E3A"/>
<stop offset="0.35" stop-color="#ED683C"/>
<stop offset="0.7" stop-color="#F3903F"/>
<stop offset="1" stop-color="#FDC70C"/>
</linearGradient>
</defs>
</svg>
