<svg width="38" height="37" viewBox="0 0 38 37" fill="none" xmlns="http://www.w3.org/2000/svg">
    <path d="M19 34.6875C25.5584 34.6875 30.875 29.2379 30.875 22.5153C30.875 17.3998 19.8442 2.65125 19.8442 2.65125C19.6238 2.38184 19.2999 2.3125 19 2.3125C18.6897 2.3125 18.4155 2.40266 18.1604 2.65125C18.1604 2.65125 7.12476 17.5346 7.12476 22.5153C7.12476 29.2379 12.4414 34.6875 18.9998 34.6875L19 34.6875ZM19 27.9259C16.8139 27.9259 15.0433 26.1065 15.0432 23.8657C15.0432 21.6249 16.8138 19.8098 19 19.8098C21.1862 19.8098 22.9568 21.6249 22.9568 23.8657C22.9567 26.1065 21.1861 27.9259 19 27.9259Z" fill="url(#paint0_linear_532_39284)"/>
    <defs>
        <linearGradient id="paint0_linear_532_39284" x1="30.8749" y1="18.5005" x2="5.19401" y2="18.5005" gradientUnits="userSpaceOnUse">
            <stop stop-color="#FC6A28"/>
            <stop offset="1" stop-color="#F94045"/>
        </linearGradient>
    </defs>
</svg>
