<svg width="40" height="40" viewBox="0 0 40 40" fill="none" xmlns="http://www.w3.org/2000/svg">
    <g clip-path="url(#clip0_532_24962)">
        <rect width="40" height="40" rx="20" fill="#F9FAFB"/>
        <path d="M21.2775 3.17545C39.3477 1.49786 50.3229 6.87531 46.0946 9.98664C23.9691 26.2629 -14.3646 20.34 -8.37233 13.549C-6.25402 11.15 3.20829 4.85304 21.2775 3.17545Z" fill="#CFD0C7"/>
        <path d="M21.2774 3.17564C23.6073 2.9593 25.8181 2.86121 27.8933 2.85938C28.1415 4.28395 28.5454 5.67552 29.1379 6.99834C30.1636 9.29013 31.6977 11.3491 33.7207 12.8562C34.9003 13.7353 36.2072 14.3403 37.5251 14.9279C28.6269 18.9083 18.6114 20.4319 10.1574 20.4411C10.4111 17.9082 9.9294 15.2983 7.62793 13.7591C4.97112 11.9816 1.39024 11.8083 -1.69884 12.0522C-3.32534 12.1805 -4.99764 12.3639 -6.61041 12.0091C-6.61224 12.0082 -6.61499 12.0073 -6.61865 12.0073C-2.74105 9.11779 6.31921 4.56355 21.2774 3.17564Z" fill="#C2BEBB" fill-opacity="0.2"/>
        <path d="M11.9014 26.6755C12.1807 26.6901 12.5718 26.6306 12.8355 26.6379C15.2908 26.7057 17.6436 27.5115 20.0925 27.2539C24.1643 26.8249 26.1965 24.8411 28.5969 22.6685C27.801 17.512 25.103 7.81864 21.578 9.38622L18.7581 9.71074C11.0588 9.13137 11.9069 20.2942 12.0223 24.985C12.0561 25.9898 11.9701 25.6781 11.9014 26.6755Z" fill="#B7564A"/>
        <path d="M25.1834 29.4155C24.8216 28.0532 24.8244 26.6818 24.7136 25.2783C24.5405 23.0965 24.6834 21.1494 25.2155 18.9209C23.2895 19.756 20.368 21.7315 20.368 21.7315C21.4285 26.8349 19.8112 30.7658 19.4009 31.6092C20.8497 32.6909 23.5551 35.5263 25.8062 31.4084C25.5754 30.7502 25.3602 30.0874 25.1834 29.4155Z" fill="#F5928F"/>
        <path d="M24.7133 25.2783C24.5402 23.0965 24.683 21.1494 25.2151 18.9209C23.2892 19.756 20.3677 21.7315 20.3677 21.7315C20.4858 22.2999 20.5692 22.8518 20.6259 23.3881C21.6004 23.4531 23.7636 22.9489 23.8561 23.8877C23.9018 24.346 24.9175 27.2768 21.6782 28.7389C20.7468 29.1588 24.0154 29.8527 24.4074 29.09C24.6501 28.6207 24.8049 28.2127 24.901 27.8433C24.8067 26.9962 24.781 26.1437 24.7133 25.2783Z" fill="#C2BEBB" fill-opacity="0.2"/>
        <path d="M18.2804 33.6969C17.1988 35.1756 15.2234 43.3206 13.4788 41.8373C11.735 40.3541 15.4917 33.2331 15.8764 31.8167C16.2445 30.4572 16.6603 27.9399 17.8298 26.9838C18.4471 26.4778 19.776 26.7042 20.1002 27.5082C20.4729 28.4322 21.0068 29.9677 18.2804 33.6969Z" fill="#F5928F"/>
        <path d="M11.9987 40.9072C11.1369 41.6699 7.99375 44.938 4.13172 45.7163C3.43386 45.8575 4.93581 47.2509 4.93581 47.2509C6.71068 46.9997 11.7422 44.7868 13.5171 43.3723C14.3551 42.704 15.4861 40.8605 14.9623 40.2664C13.9613 39.1325 12.5491 40.4214 11.9987 40.9072Z" fill="#F5928F"/>
        <path d="M28.306 49.376C26.3351 45.5698 25.9752 42.5666 26.238 40.2757C26.7848 35.5042 28.5541 33.5342 28.7739 30.9426C28.8518 30.0186 28.1338 26.6212 28.1338 26.6212C27.3654 26.5827 25.575 26.0621 24.7141 25.2773C24.7141 25.2773 24.2379 28.583 22.5894 28.5931C20.9418 28.5839 20.7119 25.5184 20.7119 25.5184C20.2934 26.1051 19.4472 26.5259 18.7127 26.7157C18.0744 26.8816 17.0587 31.4083 17.1365 32.3306C17.3563 34.923 20.8301 41.0934 17.1329 50.0837C17.1329 50.0837 19.2219 52.9401 22.8083 53.0327C26.3937 53.1244 28.306 49.376 28.306 49.376Z" fill="#F5928F"/>
        <path d="M26.238 40.275C26.3781 39.0475 26.6006 38.0052 26.8561 37.0894V37.0885L18.2602 36.9482C18.3536 37.369 18.4415 37.81 18.5203 38.272C19.7722 37.7797 21.8585 38.1574 22.604 38.2711C26.0649 38.8 26.0429 43.8209 26.3726 47.9552C26.4962 49.5008 24.5226 50.6541 22.5179 50.7613C20.1047 50.8906 17.5504 49.7813 17.3096 49.6924C17.9497 50.2901 20.1706 52.2913 22.2743 52.3454C25.8606 52.438 28.3068 49.3762 28.3068 49.3762C26.3359 45.5681 25.9751 42.565 26.238 40.275Z" fill="#C2BEBB" fill-opacity="0.2"/>
        <path d="M28.3059 49.3758C27.0622 50.3924 22.603 50.2824 23.6196 42.461C24.105 40.1435 24.9723 37.9333 26.8561 37.089C26.8561 37.089 27.4285 35.8927 27.9514 34.382C27.9514 34.382 27.4661 29.6902 23.4392 30.8755C22.4702 31.1616 21.2009 32.6219 21.2009 32.6219C21.2009 32.6219 20.7805 31.5557 20.0433 31.2257C19.0771 30.793 17.37 30.6363 17.3068 33.6339C17.2656 35.6003 18.2602 36.9497 18.2602 36.9497C19.7292 38.4824 20.3309 40.7403 20.6358 42.9129C21.0653 50.5739 17.3105 49.692 17.3105 49.692L17.0293 50.2824C17.0293 50.2824 20.0231 53.4396 22.0114 57.2164L22.3869 57.3228C24.0015 54.5259 28.7968 50.0743 28.7968 50.0743L28.3059 49.3758Z" fill="#4FA49E"/>
        <path d="M32.8336 27.4022C34.1798 26.1591 42.0404 23.2715 40.3699 21.7048C38.6994 20.1382 32.0588 24.6823 30.6951 25.225C29.3882 25.7457 26.9356 26.4442 26.1196 27.7148C25.6874 28.3868 26.0638 29.6821 26.8972 29.9131C27.857 30.1808 29.4423 30.5374 32.8336 27.4022Z" fill="#F5928F"/>
        <path d="M38.745 21.0813C40.9256 15.857 42.4285 15.0081 43.315 11.9252C43.5128 11.2395 44.9195 12.576 44.9195 12.576C43.5137 15.1089 43.5055 16.9094 42.1574 19.8374C41.0987 22.1356 39.5921 23.7096 38.9502 23.2448C37.7257 22.3592 38.462 21.7588 38.745 21.0813Z" fill="#F5928F"/>
        <path d="M19.9223 34.6319C19.9846 34.532 20.0487 34.4468 20.1018 34.3414C20.1549 34.2359 20.2136 34.1323 20.2758 34.0315C20.4114 33.8142 20.5607 33.6043 20.7209 33.4054C20.8748 33.2147 21.0378 33.0332 21.2072 32.8563C21.3528 32.7032 21.5653 32.5473 21.6395 32.3429C21.6532 32.3044 21.6102 32.2613 21.5717 32.2751C21.3629 32.3512 21.2045 32.5758 21.0607 32.7362C20.8858 32.9305 20.7154 33.1304 20.5561 33.3376C20.4013 33.5392 20.2557 33.7473 20.1348 33.971C20.0771 34.0773 20.024 34.1864 19.9764 34.2983C19.9278 34.411 19.9205 34.5073 19.9086 34.6283C19.9058 34.6365 19.9187 34.6384 19.9223 34.6319Z" fill="#C2BEBB" fill-opacity="0.2"/>
        <path d="M25.649 37.9344C25.997 37.5842 26.3963 37.2964 26.8561 37.0901C26.8561 37.0901 27.4285 35.8938 27.9514 34.3831C27.9514 34.3831 27.8855 33.7533 27.6052 33.0135L27.6043 33.0107C26.8231 36.3073 24.67 37.7043 21.4115 36.8004C21.0122 36.6895 20.4526 37.2084 19.9581 37.2386C19.7593 37.2506 19.5533 37.2295 19.3555 37.2441C20.7512 37.8776 21.3538 37.3248 21.3538 37.3248C22.0498 37.6585 23.767 38.5926 25.649 37.9344Z" fill="#C2BEBB" fill-opacity="0.2"/>
        <path d="M27.0722 15.219C25.16 20.5287 23.2679 24.2093 19.2071 23.057C15.1482 21.9047 12.7899 17.6758 13.942 13.612C15.0932 9.54824 19.3179 7.18862 23.3769 8.34093C27.4377 9.49324 28.5037 11.2451 27.0722 15.219Z" fill="#F5928F"/>
        <path d="M20.9413 14.8933C20.6153 14.8071 20.2993 14.9612 20.085 15.1995C19.9229 15.3792 20.1858 15.6441 20.3506 15.4653C20.4935 15.3095 20.6849 15.1958 20.9038 15.2297C21.0787 15.2573 21.1767 15.4094 21.3361 15.4635C21.3736 15.4763 21.424 15.4498 21.4313 15.4094C21.4808 15.1326 21.1685 14.9538 20.9413 14.8933Z" fill="#F37363"/>
        <path d="M16.2035 16.3601C15.8848 16.3125 15.6201 16.4289 15.4095 16.67C15.2996 16.7965 15.0853 17.1182 15.2867 17.2567C15.3096 17.2732 15.3417 17.2695 15.3655 17.2567C15.4754 17.1971 15.5294 17.0284 15.6128 16.9367C15.7291 16.8102 15.9251 16.6975 16.1036 16.7222C16.339 16.7552 16.4434 16.3959 16.2035 16.3601Z" fill="#F37363"/>
        <path d="M7.54541 27.0692C7.64707 27.1187 8.06377 27.0023 8.16543 26.8951C8.43559 26.6118 8.68928 26.3084 8.92739 25.9884C8.70301 26.4339 8.4649 26.8776 8.21488 27.3195C8.20938 27.3277 8.20206 27.3351 8.19565 27.3424C9.65822 27.875 11.3617 27.9823 12.7848 28.0217C13.6375 28.0446 14.4919 28.0373 15.3446 27.9924C15.3373 27.8787 15.3263 27.7669 15.3098 27.6568C15.1926 26.8648 15.0323 26.1113 15.0561 25.3091C15.057 25.2633 14.9892 25.2431 14.9682 25.2853C14.9645 25.2926 14.9627 25.3009 14.959 25.3091C14.742 23.8213 14.4342 22.3766 14.2511 21.1298C13.9928 19.3642 13.9974 17.2815 14.9718 15.7588C15.9957 14.161 17.9877 13.5174 19.0702 11.9599C19.2542 11.6959 19.4209 11.3861 19.5711 11.0487C20.1224 11.6427 20.8038 12.1314 21.3753 12.7052C22.4862 13.8209 22.0887 15.1813 22.1263 16.5728C22.1281 16.6535 22.2325 16.6599 22.2591 16.5912C22.7032 15.4764 22.7005 14.0913 22.086 13.0462C21.8735 12.6851 21.5777 12.41 21.2599 12.157C21.2819 12.1689 21.3029 12.1809 21.3268 12.1928C21.5759 12.4055 21.8204 12.6245 22.0448 12.8656C22.4239 13.2736 22.5247 13.8227 22.6291 14.3507C22.9276 15.8642 22.902 18.4723 24.8078 18.9572C24.8829 18.9756 24.9498 18.8775 24.8875 18.8215C24.0852 18.1157 23.5815 17.5455 23.3159 16.4784C23.0943 15.5846 23.0384 14.6587 22.8113 13.7649C22.7481 13.5202 22.6574 13.3103 22.5475 13.1168C22.6959 13.3066 22.8177 13.5092 22.9212 13.7164C23.0558 14.0977 23.13 14.5029 23.195 14.9237C23.3562 15.9751 23.4826 17.0321 24.5294 17.573C24.6182 17.6188 24.7043 17.5097 24.6356 17.4355C24.1567 16.9212 23.7995 16.5096 23.6429 15.8065C23.6099 15.658 23.5824 15.5094 23.5568 15.36C23.6301 15.5351 23.7106 15.6974 23.8059 15.8422C24.2492 16.5114 24.1081 15.2949 24.457 15.635C24.9424 16.1071 25.1833 16.7278 25.2703 17.4318C25.2859 17.6729 25.2987 17.9112 25.3078 18.1478C25.2886 20.4533 23.2216 22.2895 24.1658 26.8245C26.492 23.8332 29.0627 26.6375 31.1655 22.7167C30.0775 21.0803 29.5069 16.1594 28.8777 14.7348C28.875 14.7293 28.8722 14.7238 28.8695 14.7183C27.9005 11.1074 25.6568 4.01842 19.9842 5.59884V5.59976C18.9685 4.71238 16.0406 4.31452 14.0395 5.94536C10.3048 8.9916 9.84688 11.6079 10.7123 15.7359C11.2041 18.0818 11.0081 20.2892 10.3753 22.4242C9.81299 24.1412 8.90083 25.7299 7.54541 27.0692Z" fill="#F37363"/>
        <path d="M13.4142 20.3851C13.7549 22.7805 14.3383 25.5279 13.993 28.0342C14.0993 28.0333 14.2046 28.0323 14.3108 28.0305C14.5031 26.165 14.1954 24.2436 13.9472 22.3964C13.6459 20.1495 13.2768 17.91 13.0799 15.6494C12.9142 13.7362 12.8116 11.7286 13.3758 9.86947C13.9372 8.01587 15.3622 6.81314 17.149 6.2026C18.0391 5.89825 19.1473 5.74241 19.9267 6.38136C20.0045 6.44553 20.1181 6.33553 20.0393 6.26952C19.0539 5.44998 17.6197 5.78733 16.5463 6.24661C15.1158 6.85806 14.0608 7.82611 13.4087 9.24977C12.7237 10.7486 12.6889 12.4555 12.7402 14.0708C12.8098 16.1875 13.1157 18.2913 13.4142 20.3851Z" fill="#F58E8C"/>
        <path d="M12.8354 28.0226C12.9499 28.0254 13.0635 28.0281 13.178 28.0299C14.081 26.2863 14.4436 24.32 13.8694 22.3023C13.8474 22.2244 13.7357 22.2574 13.7504 22.3353C14.1414 24.4135 13.7385 26.3303 12.8354 28.0226Z" fill="#F58E8C"/>
        <path d="M9.479 27.7005C9.56692 27.7188 9.65576 27.7362 9.7446 27.7518C11.3537 25.1016 12.1257 21.9627 11.427 18.8661C11.4151 18.8092 11.3226 18.8212 11.3253 18.8798C11.4151 20.8948 11.4581 22.818 10.8601 24.7706C10.5423 25.812 10.0606 26.7865 9.479 27.7005Z" fill="#F58E8C"/>
        <path d="M19.3152 8.1195C19.1494 9.12238 18.9782 10.029 18.3975 10.888C17.7876 11.7909 16.8379 12.4821 16.032 13.1999C14.7095 14.3761 13.6362 15.8007 13.5611 17.6405C13.5592 17.7093 13.6618 17.7212 13.6792 17.657C13.9402 16.6422 14.2168 15.731 14.8322 14.8684C15.4028 14.0699 16.195 13.4355 16.924 12.7892C18.3572 11.5178 19.5451 10.1693 19.4324 8.13508C19.4297 8.07091 19.3271 8.04983 19.3152 8.1195Z" fill="#F58E8C"/>
        <path d="M19.419 6.85144C19.0847 7.54722 18.8695 8.27968 18.4748 8.9498C18.0956 9.59241 17.5178 10.1443 16.9875 10.6613C16.025 11.5991 15.1146 12.4682 14.5459 13.7112C14.4992 13.8166 14.6512 13.9083 14.7034 13.8029C15.9618 11.2489 19.1488 9.94077 19.4639 6.86244C19.4666 6.84043 19.43 6.83035 19.419 6.85144Z" fill="#F58E8C"/>
        <path d="M13.6677 15.1096C13.8774 14.1902 14.0404 13.344 14.4754 12.4924C14.8637 11.7334 15.3903 11.0623 15.9554 10.428C16.504 9.811 17.1048 9.23897 17.6909 8.65778C18.2495 8.10316 18.9355 7.53847 19.2954 6.82893C19.322 6.77668 19.2634 6.69784 19.2075 6.74092C18.5215 7.25337 17.9684 7.99682 17.3612 8.60369C16.7348 9.22981 16.1056 9.85134 15.5277 10.5242C14.4626 11.7636 13.534 13.4119 13.5761 15.0968C13.577 15.149 13.6558 15.1619 13.6677 15.1096Z" fill="#F58E8C"/>
        <path d="M19.2643 5.61713C18.0709 4.91585 16.3071 5.57313 15.2163 6.1745C13.8407 6.93262 12.6318 8.1821 11.999 9.62501C11.1986 11.4493 11.368 13.4606 11.7059 15.3692C11.8983 16.4509 12.1437 17.5207 12.3278 18.6033C12.5274 19.7813 12.6025 20.9804 12.9002 22.1409C12.9185 22.2115 13.0165 22.1794 13.0055 22.1107C12.7298 20.2479 12.5595 18.4007 12.1675 16.5535C11.7371 14.5267 11.3579 12.4705 11.9184 10.4299C12.3516 8.85222 13.4872 7.57065 14.8078 6.65852C15.4443 6.2185 16.155 5.89765 16.9023 5.70056C17.7238 5.48238 18.4217 5.64372 19.2386 5.70697C19.2899 5.71156 19.3045 5.64005 19.2643 5.61713Z" fill="#F58E8C"/>
        <path d="M19.0386 6.37222C17.7876 6.5134 16.6391 7.41361 15.7984 8.29824C14.8496 9.29838 14.1975 10.5671 13.7854 11.8744C13.7698 11.9239 13.8413 11.9394 13.8605 11.8945C14.3871 10.6395 15.0209 9.45239 15.9367 8.43667C16.8241 7.45028 17.8993 6.99559 19.0505 6.41531C19.0697 6.40431 19.0615 6.36947 19.0386 6.37222Z" fill="#F58E8C"/>
        <path d="M11.9215 27.9888C12.6139 26.6687 13.0132 25.2148 12.8694 23.8663C12.8639 23.815 12.7796 23.7921 12.7705 23.8526C12.5708 25.3211 12.2677 26.6495 11.5918 27.9686C11.7026 27.976 11.8134 27.9833 11.9215 27.9888Z" fill="#F58E8C"/>
        <path d="M9.09372 27.6142C9.17523 27.473 9.25399 27.3328 9.33092 27.1971C10.1597 25.7276 10.8805 24.0876 11.0518 22.3944C11.0637 22.2762 10.864 22.2496 10.8448 22.366C10.5764 24.0271 9.90697 25.5974 9.10105 27.0633C9.0113 27.2264 8.91696 27.3859 8.8208 27.5436C8.91147 27.5684 9.00305 27.5913 9.09372 27.6142Z" fill="#F58E8C"/>
        <path d="M10.6882 27.89C11.6956 26.2225 12.4145 24.3396 12.2488 22.4612C12.2451 22.4218 12.1902 22.4218 12.1874 22.4612C12.0784 23.9224 11.7332 25.2609 11.0866 26.5782C10.8723 27.0173 10.6287 27.4371 10.375 27.8524C10.4794 27.8652 10.5838 27.8781 10.6882 27.89Z" fill="#F58E8C"/>
        <path d="M11.857 18.9245C12.0329 17.621 11.6546 16.2496 11.4074 14.9772C11.1006 13.3977 10.8991 11.7696 11.4284 10.2148C11.4348 10.1965 11.4074 10.1901 11.4 10.2075C10.8716 11.4781 10.8854 12.7541 11.0813 14.0971C11.3167 15.7151 11.6519 17.2772 11.7737 18.9135C11.7774 18.9566 11.8497 18.974 11.857 18.9245Z" fill="#F58E8C"/>
        <path d="M27.8975 14.4307C28.8499 16.376 29.8299 21.4417 29.916 21.3455C29.8848 20.8147 29.8289 20.283 29.7511 19.7504C29.2218 16.1532 27.8123 12.2645 24.7434 10.0781C24.6738 10.0286 24.5968 10.1359 24.6545 10.1927C25.9458 11.4734 27.0906 12.7834 27.8975 14.4307Z" fill="#F58E8C"/>
        <path d="M20.3591 6.42703C21.2484 6.5022 22.1037 6.39861 22.9857 6.61771C23.8163 6.82397 24.5014 7.44183 25.0399 8.07803C26.0253 9.24134 26.4219 10.6907 27.1014 12.0199C27.1325 12.0804 27.2232 12.0373 27.2076 11.975C26.8303 10.4377 25.9978 8.82607 24.9364 7.65543C23.7715 6.36928 22.0158 6.02826 20.3508 6.35369C20.3051 6.36194 20.3206 6.42336 20.3591 6.42703Z" fill="#F58E8C"/>
        <path d="M19.8747 9.57195C20.4325 10.4987 21.2494 11.1845 22.0507 11.8922C22.5169 12.3028 22.9684 12.7209 23.3411 13.2205C23.7011 13.7018 23.8146 14.26 24.0637 14.7899C24.0875 14.8412 24.1571 14.8101 24.1608 14.7633C24.2386 13.7751 23.3814 12.8345 22.7202 12.2038C21.7824 11.311 20.688 10.6234 19.9764 9.51328C19.9352 9.45094 19.8354 9.50778 19.8747 9.57195Z" fill="#F58E8C"/>
        <path d="M24.4015 12.5951C25.3164 13.3009 26.2615 13.9573 27.0116 14.8465C27.7204 15.6853 28.1857 16.7038 28.476 17.7562C28.922 19.3714 28.7828 22.502 28.9 22.3911C29.1766 20.7007 29.1299 18.9488 28.6317 17.307C28.0556 15.4057 26.7918 14.0948 25.2477 12.9251C24.3264 12.2265 23.4032 11.5335 22.5433 10.7598C21.7154 10.0136 21.0789 9.1363 20.3297 8.32226C20.3004 8.29017 20.2583 8.33051 20.2739 8.36534C21.1008 10.1236 22.905 11.4418 24.4015 12.5951Z" fill="#F58E8C"/>
        <path d="M27.6331 18.9828C27.9189 20.4651 27.4069 23.6608 27.5205 23.5719C27.6588 23.1273 27.7897 22.6799 27.8859 22.2234C28.352 20.0104 27.8438 17.2346 26.6074 15.3306C26.5698 15.2728 26.4755 15.3086 26.4947 15.3783C26.8336 16.6002 27.3904 17.7251 27.6331 18.9828Z" fill="#F58E8C"/>
        <path d="M25.1292 23.1906C25.404 21.1885 26.2804 19.0727 25.7978 17.0303C25.7813 16.9615 25.6778 16.978 25.676 17.0477C25.6558 18.2779 25.6393 19.433 25.4104 20.6532C25.2107 21.7147 24.9186 22.7515 24.8169 23.8314C24.7721 24.3127 24.7766 24.8224 24.8279 25.3367C24.9058 25.2936 25.0376 23.8589 25.1292 23.1906Z" fill="#F58E8C"/>
        <path d="M25.8545 24.7351C25.9351 24.6847 26.469 23.041 26.6897 22.2719C26.9178 21.4707 27.0964 20.6154 27.1165 19.7812C27.1376 18.88 26.9727 17.9422 26.8766 17.0475C26.8711 16.9944 26.785 16.9714 26.7749 17.0329C26.6375 17.8579 26.8308 18.6967 26.8701 19.5254C26.9178 20.5045 26.6284 21.5046 26.3728 22.4415C26.165 23.2097 25.9406 23.9458 25.8545 24.7351Z" fill="#F58E8C"/>
        <path d="M20.6715 7.25178C21.5425 7.4782 22.3548 7.72022 23.1507 8.15199C24.0015 8.61402 24.7112 9.26855 25.4402 9.89375C25.475 9.92492 25.5208 9.87817 25.4906 9.84333C24.2753 8.46367 22.5426 7.34711 20.6844 7.15552C20.6294 7.15002 20.6203 7.23803 20.6715 7.25178Z" fill="#F58E8C"/>
        <path d="M21.5699 8.20725C22.2092 9.06347 22.962 10.0838 23.974 10.5119C24.0225 10.532 24.0811 10.4743 24.0344 10.433C23.6397 10.0829 23.2111 9.77667 22.8219 9.41915C22.396 9.03046 22.0223 8.58311 21.6404 8.15225C21.6075 8.11375 21.5388 8.16509 21.5699 8.20725Z" fill="#F58E8C"/>
        <path d="M23.8057 15.8426C24.3286 16.146 24.1546 15.3998 24.2993 15.0717C24.4037 14.8361 24.5484 14.5977 24.7865 14.4675C25.2884 14.1953 25.9221 14.3456 26.1951 14.8608C26.4716 15.3843 26.4094 15.9737 25.9908 16.4091C25.6877 16.7245 24.9898 17.1315 24.5988 16.8372L23.8057 15.8426Z" fill="#F5928F"/>
        <path d="M24.5723 16.0073C25.0174 15.9798 25.4195 15.3234 25.4039 14.9219C25.403 14.8963 25.37 14.8871 25.3554 14.9082C25.2381 15.0979 25.1768 15.3115 25.0614 15.4995C24.9295 15.7167 24.7381 15.8093 24.5559 15.9688C24.5412 15.9816 24.5531 16.0091 24.5723 16.0073Z" fill="#C2BEBB" fill-opacity="0.2"/>
        <path d="M24.9022 15.8774C25.0506 15.7995 25.1816 15.7564 25.3501 15.7417C25.4701 15.7307 25.5827 15.7637 25.6963 15.7151C25.7265 15.7023 25.7247 15.6592 25.7054 15.639C25.4902 15.4062 25.025 15.6235 24.829 15.783C24.7731 15.8279 24.8436 15.9086 24.9022 15.8774Z" fill="#C2BEBB" fill-opacity="0.2"/>
        <path d="M17.8633 20.3621C17.8633 20.3621 18.5923 19.9725 19.5035 19.7259C20.4148 19.4793 21.3828 19.4014 21.3828 19.4014C21.3828 19.4014 21.435 21.1257 20.0301 21.5089C18.6097 21.8958 17.8633 20.3621 17.8633 20.3621Z" fill="#EFF8F5"/>
        <path d="M16.4417 17.4978C16.4417 17.6821 16.2924 17.8306 16.1083 17.8306C15.9242 17.8306 15.7759 17.6812 15.7759 17.4978C15.7759 17.3145 15.9242 17.165 16.1083 17.165C16.2924 17.165 16.4417 17.3145 16.4417 17.4978Z" fill="#1D0800"/>
        <path d="M21.1967 16.0701C21.1967 16.2534 21.0474 16.4028 20.8642 16.4028C20.6811 16.4028 20.5327 16.2534 20.5327 16.0701C20.5327 15.8867 20.6811 15.7373 20.8642 15.7373C21.0474 15.7373 21.1967 15.8867 21.1967 16.0701Z" fill="#1D0800"/>
        <path d="M18.4988 18.3643C18.453 18.5394 18.4585 18.7273 18.5501 18.8593C18.6407 18.9913 18.8001 19.0655 18.9631 19.082C19.1243 19.0995 19.2956 19.0619 19.4229 18.9601C19.5502 18.8584 19.6161 18.6869 19.6234 18.5045C19.6472 18.5925 19.65 18.6879 19.6335 18.7832C19.6143 18.8767 19.5657 18.9693 19.4952 19.0399C19.3533 19.1847 19.1426 19.2388 18.9485 19.2196C18.7552 19.1985 18.5537 19.0976 18.4585 18.9143C18.41 18.8254 18.3953 18.7218 18.4063 18.6264C18.4191 18.5302 18.4512 18.4413 18.4988 18.3643Z" fill="#AFA8A4"/>
        <path d="M23.7571 2.98557C22.9494 1.83326 20.113 -1.8556 17.1897 1.15764C16.784 1.57566 15.2189 -0.0111715 13.574 1.75076C11.9604 3.47968 10.3613 6.22341 10.3613 6.22341C12.4549 6.19866 13.6208 6.86603 16.2363 5.94015L23.7571 2.98557Z" fill="#C1C2BA"/>
        <path d="M10.8795 10.7968C10.8795 10.7968 10.2495 14.3976 3.45312 16.4227C-0.273376 17.5337 -3.87166 18.1415 -6.81145 17.5282C-6.81237 17.5282 -6.81329 17.5291 -6.81329 17.53C-8.92793 16.375 -9.63678 14.9807 -8.37202 13.5478C-6.25463 11.1488 3.20859 4.85187 21.2769 3.17429C39.1566 1.51503 50.0879 6.76139 46.2203 9.88556C43.9537 11.4596 39.467 12.6146 35.6288 10.2018C31.9967 7.92012 26.3991 8.54532 26.3991 8.54532C24.5565 2.94144 11.2505 6.73848 10.8795 10.7968Z" fill="#DEDFD4"/>
    </g>
    <defs>
        <clipPath id="clip0_532_24962">
            <rect width="40" height="40" rx="20" fill="white"/>
        </clipPath>
    </defs>
</svg>
