<svg width="80" height="80" viewBox="0 0 80 80" fill="none" xmlns="http://www.w3.org/2000/svg">
<path d="M63.75 11.25H66.25C66.25 10.2554 65.8549 9.30161 65.1516 8.59835C64.4484 7.89509 63.4946 7.5 62.5 7.5V6.25H60V7.5C59.0054 7.5 58.0516 7.89509 57.3484 8.59835C56.6451 9.30161 56.25 10.2554 56.25 11.25C56.25 12.2446 56.6451 13.1984 57.3484 13.9017C58.0516 14.6049 59.0054 15 60 15V17.5C59.6685 17.5 59.3505 17.3683 59.1161 17.1339C58.8817 16.8995 58.75 16.5815 58.75 16.25H56.25C56.25 17.2446 56.6451 18.1984 57.3484 18.9017C58.0516 19.6049 59.0054 20 60 20V21.25H62.5V20C63.4946 20 64.4484 19.6049 65.1516 18.9017C65.8549 18.1984 66.25 17.2446 66.25 16.25C66.25 15.2554 65.8549 14.3016 65.1516 13.5983C64.4484 12.8951 63.4946 12.5 62.5 12.5V10C62.8315 10 63.1495 10.1317 63.3839 10.3661C63.6183 10.6005 63.75 10.9185 63.75 11.25ZM63.75 16.25C63.75 16.5815 63.6183 16.8995 63.3839 17.1339C63.1495 17.3683 62.8315 17.5 62.5 17.5V15C62.8315 15 63.1495 15.1317 63.3839 15.3661C63.6183 15.6005 63.75 15.9185 63.75 16.25ZM60 12.5C59.6685 12.5 59.3505 12.3683 59.1161 12.1339C58.8817 11.8995 58.75 11.5815 58.75 11.25C58.75 10.9185 58.8817 10.6005 59.1161 10.3661C59.3505 10.1317 59.6685 10 60 10V12.5Z" fill="url(#paint0_linear_529_3749)"/>
<path d="M50 50C48.0222 50 46.0888 50.5865 44.4443 51.6853C42.7998 52.7841 41.5181 54.3459 40.7612 56.1732C40.0043 58.0004 39.8063 60.0111 40.1922 61.9509C40.578 63.8907 41.5304 65.6725 42.9289 67.0711C44.3275 68.4696 46.1093 69.422 48.0491 69.8079C49.9889 70.1937 51.9996 69.9957 53.8268 69.2388C55.6541 68.4819 57.2159 67.2002 58.3147 65.5557C59.4135 63.9112 60 61.9778 60 60C59.997 57.3487 58.9425 54.8069 57.0678 52.9322C55.1931 51.0575 52.6513 50.003 50 50ZM50 67.5C48.5166 67.5 47.0666 67.0601 45.8332 66.236C44.5999 65.4119 43.6386 64.2406 43.0709 62.8701C42.5033 61.4997 42.3547 59.9917 42.6441 58.5368C42.9335 57.082 43.6478 55.7456 44.6967 54.6967C45.7456 53.6478 47.082 52.9335 48.5368 52.6441C49.9917 52.3547 51.4997 52.5032 52.8701 53.0709C54.2406 53.6386 55.4119 54.5999 56.236 55.8332C57.0601 57.0666 57.5 58.5166 57.5 60C57.498 61.9885 56.7072 63.895 55.3011 65.3011C53.895 66.7072 51.9885 67.498 50 67.5Z" fill="url(#paint1_linear_529_3749)"/>
<path d="M72.9125 53.175C71.5062 52.6819 70.2288 51.8787 69.175 50.825C68.1213 49.7712 67.3181 48.4938 66.825 47.0875C66.7397 46.8436 66.581 46.6321 66.3705 46.4821C66.1601 46.3321 65.9084 46.251 65.65 46.25H34.35C34.0916 46.251 33.8399 46.3321 33.6295 46.4821C33.419 46.6321 33.2603 46.8436 33.175 47.0875C32.6819 48.4938 31.8787 49.7712 30.825 50.825C29.7712 51.8787 28.4938 52.6819 27.0875 53.175C26.8436 53.2603 26.6321 53.419 26.4821 53.6295C26.3321 53.8399 26.251 54.0916 26.25 54.35V65.65C26.251 65.9084 26.3321 66.1601 26.4821 66.3705C26.6321 66.581 26.8436 66.7397 27.0875 66.825C28.4938 67.3181 29.7712 68.1213 30.825 69.175C31.8787 70.2288 32.6819 71.5062 33.175 72.9125C33.2603 73.1564 33.419 73.3679 33.6295 73.5179C33.8399 73.6679 34.0916 73.749 34.35 73.75H65.65C65.9084 73.749 66.1601 73.6679 66.3705 73.5179C66.581 73.3679 66.7397 73.1564 66.825 72.9125C67.3181 71.5062 68.1213 70.2288 69.175 69.175C70.2288 68.1213 71.5062 67.3181 72.9125 66.825C73.1564 66.7397 73.3679 66.581 73.5179 66.3705C73.6679 66.1601 73.749 65.9084 73.75 65.65V54.35C73.749 54.0916 73.6679 53.8399 73.5179 53.6295C73.3679 53.419 73.1564 53.2603 72.9125 53.175ZM71.25 64.8C68.3542 66.0459 66.0459 68.3542 64.8 71.25H35.2C33.9541 68.3542 31.6458 66.0459 28.75 64.8V55.2C31.6458 53.9541 33.9541 51.6458 35.2 48.75H64.8C66.0459 51.6458 68.3542 53.9541 71.25 55.2V64.8Z" fill="url(#paint2_linear_529_3749)"/>
<path d="M76.2501 42.5004H71.2501V40.0004H72.5001C72.8316 40.0004 73.1495 39.8687 73.384 39.6343C73.6184 39.3998 73.7501 39.0819 73.7501 38.7504V33.7504C73.7501 33.4189 73.6184 33.1009 73.384 32.8665C73.1495 32.6321 72.8316 32.5004 72.5001 32.5004H71.2501V30.0004H72.5001C72.8316 30.0004 73.1495 29.8687 73.384 29.6343C73.6184 29.3998 73.7501 29.0819 73.7501 28.7504V23.7504C73.7501 23.4189 73.6184 23.1009 73.384 22.8665C73.1495 22.6321 72.8316 22.5004 72.5001 22.5004H68.3001C70.1148 21.041 71.432 19.0545 72.0699 16.8148C72.7077 14.5751 72.6348 12.1927 71.8612 9.99616C71.0876 7.79966 69.6514 5.89737 67.7508 4.55172C65.8502 3.20607 63.5788 2.4834 61.2501 2.4834C58.9213 2.4834 56.65 3.20607 54.7494 4.55172C52.8488 5.89737 51.4126 7.79966 50.639 9.99616C49.8654 12.1927 49.7925 14.5751 50.4303 16.8148C51.0681 19.0545 52.3853 21.041 54.2001 22.5004H52.5001C52.1686 22.5004 51.8506 22.6321 51.6162 22.8665C51.3818 23.1009 51.2501 23.4189 51.2501 23.7504V27.5004H50.0001C49.6686 27.5004 49.3506 27.6321 49.1162 27.8665C48.8818 28.1009 48.7501 28.4189 48.7501 28.7504V33.7504C48.7501 34.0819 48.8818 34.3998 49.1162 34.6343C49.3506 34.8687 49.6686 35.0004 50.0001 35.0004H51.2501V37.5004H50.0001C49.6686 37.5004 49.3506 37.6321 49.1162 37.8665C48.8818 38.1009 48.7501 38.4189 48.7501 38.7504V42.5004H27.5001V36.2504H36.2501C36.489 36.2504 36.723 36.1819 36.9242 36.0531C37.1255 35.9242 37.2855 35.7404 37.3855 35.5233C37.4855 35.3063 37.5212 35.0651 37.4883 34.8285C37.4554 34.5918 37.3554 34.3695 37.2001 34.1879L20.9501 15.4379C20.8285 15.3077 20.6814 15.2039 20.5179 15.1329C20.3545 15.0619 20.1783 15.0253 20.0001 15.0253C19.8219 15.0253 19.6456 15.0619 19.4822 15.1329C19.3188 15.2039 19.1717 15.3077 19.0501 15.4379L2.80008 34.1879C2.64476 34.3695 2.54474 34.5918 2.51188 34.8285C2.47901 35.0651 2.51468 35.3063 2.61465 35.5233C2.71462 35.7404 2.8747 35.9242 3.07594 36.0531C3.27717 36.1819 3.51113 36.2504 3.75008 36.2504H12.5001V75.0004H2.50008V77.5004H13.7501C14.0816 77.5004 14.3995 77.3687 14.634 77.1343C14.8684 76.8998 15.0001 76.5819 15.0001 76.2504V35.0004C15.0001 34.6689 14.8684 34.3509 14.634 34.1165C14.3995 33.8821 14.0816 33.7504 13.7501 33.7504H6.48758L20.0001 18.1629L33.5126 33.7504H26.2501C25.9186 33.7504 25.6006 33.8821 25.3662 34.1165C25.1318 34.3509 25.0001 34.6689 25.0001 35.0004V42.5004H23.7501C23.4186 42.5004 23.1006 42.6321 22.8662 42.8665C22.6318 43.1009 22.5001 43.4189 22.5001 43.7504V76.2504C22.5001 76.5819 22.6318 76.8998 22.8662 77.1343C23.1006 77.3687 23.4186 77.5004 23.7501 77.5004H76.2501C76.5816 77.5004 76.8995 77.3687 77.134 77.1343C77.3684 76.8998 77.5001 76.5819 77.5001 76.2504V43.7504C77.5001 43.4189 77.3684 43.1009 77.134 42.8665C76.8995 42.6321 76.5816 42.5004 76.2501 42.5004ZM71.2501 37.5004H53.7501V35.0004H71.2501V37.5004ZM52.5001 13.7504C52.5001 12.0198 53.0133 10.3281 53.9747 8.88914C54.9362 7.45021 56.3027 6.3287 57.9016 5.66644C59.5005 5.00417 61.2598 4.83089 62.9571 5.16851C64.6545 5.50613 66.2136 6.33949 67.4373 7.5632C68.661 8.78691 69.4943 10.346 69.832 12.0433C70.1696 13.7407 69.9963 15.5 69.334 17.0989C68.6718 18.6977 67.5503 20.0643 66.1113 21.0257C64.6724 21.9872 62.9807 22.5004 61.2501 22.5004C58.9302 22.4977 56.7062 21.575 55.0658 19.9346C53.4254 18.2943 52.5027 16.0702 52.5001 13.7504ZM53.7501 25.0004H71.2501V27.5004H53.7501V25.0004ZM51.2501 30.0004H68.7501V32.5004H51.2501V30.0004ZM51.2501 40.0004H68.7501V42.5004H51.2501V40.0004ZM75.0001 75.0004H25.0001V45.0004H75.0001V75.0004Z" fill="url(#paint3_linear_529_3749)"/>
<defs>
<linearGradient id="paint0_linear_529_3749" x1="61.25" y1="21.7062" x2="61.25" y2="5.76175" gradientUnits="userSpaceOnUse">
<stop stop-color="#E93E3A"/>
<stop offset="0.35" stop-color="#ED683C"/>
<stop offset="0.7" stop-color="#F3903F"/>
<stop offset="1" stop-color="#FDC70C"/>
</linearGradient>
<linearGradient id="paint1_linear_529_3749" x1="153.18" y1="1571.96" x2="1636.72" y2="358.14" gradientUnits="userSpaceOnUse">
<stop stop-color="#FFF200"/>
<stop offset="1" stop-color="#CD118C"/>
</linearGradient>
<linearGradient id="paint2_linear_529_3749" x1="295.053" y1="2138.95" x2="2257.56" y2="-634.544" gradientUnits="userSpaceOnUse">
<stop stop-color="#FFF200"/>
<stop offset="1" stop-color="#CD118C"/>
</linearGradient>
<linearGradient id="paint3_linear_529_3749" x1="40" y1="79.7821" x2="40" y2="0.0415971" gradientUnits="userSpaceOnUse">
<stop stop-color="#E93E3A"/>
<stop offset="0.35" stop-color="#ED683C"/>
<stop offset="0.7" stop-color="#F3903F"/>
<stop offset="1" stop-color="#FDC70C"/>
</linearGradient>
</defs>
</svg>
