<svg width="20" height="20" viewBox="0 0 20 20" fill="none" xmlns="http://www.w3.org/2000/svg">
    <path d="M20 10C20 15.525 15.525 20 10 20C4.475 20 0 15.525 0 10C0 4.475 4.475 0 10 0C15.525 0 20 4.475 20 10Z" fill="url(#paint0_linear_836_53971)"/>
    <path d="M8.17305 14.4734C7.84867 14.4734 7.90689 14.3509 7.79045 14.0487L6.84229 10.978L12.7309 7.36816L13.4212 7.54784L12.8473 9.08323L8.17305 14.4734Z" fill="#C8DAEA"/>
    <path d="M8.15771 14.4738C8.40208 14.4738 8.50797 14.3624 8.64644 14.2351C8.85822 14.0362 11.5788 11.4505 11.5788 11.4505L9.90897 11.0527L8.36135 12.0074L8.15771 14.3942V14.4738Z" fill="#A9C9DD"/>
    <path d="M8.43254 12.1335L12.4336 15.1388C12.8883 15.3913 13.2189 15.2651 13.3347 14.7095L14.9632 6.8973C15.1285 6.21542 14.7069 5.91236 14.2688 6.1144L4.71253 9.86895C4.05947 10.1383 4.06773 10.5087 4.5968 10.6687L7.052 11.4516L12.7312 7.80647C12.9957 7.63811 13.2437 7.73071 13.0453 7.91591L8.43254 12.1335Z" fill="url(#paint1_linear_836_53971)"/>
    <defs>
        <linearGradient id="paint0_linear_836_53971" x1="12.9308" y1="3.16083" x2="7.93083" y2="14.8273" gradientUnits="userSpaceOnUse">
            <stop stop-color="#37AEE2"/>
            <stop offset="1" stop-color="#1E96C8"/>
        </linearGradient>
        <linearGradient id="paint1_linear_836_53971" x1="10.8291" y1="10.3955" x2="12.9502" y2="13.7282" gradientUnits="userSpaceOnUse">
            <stop stop-color="#EFF7FC"/>
            <stop offset="1" stop-color="white"/>
        </linearGradient>
    </defs>
</svg>
