<svg width="40" height="40" viewBox="0 0 40 40" fill="none" xmlns="http://www.w3.org/2000/svg">
    <g clip-path="url(#clip0_532_24848)">
        <rect width="40" height="40" rx="20" fill="#F9FAFB"/>
        <path d="M34.6838 53.083H32.2398C32.2398 53.083 32.2398 51.835 32.0115 49.9054C31.7832 47.9758 31.3867 46.2742 30.9903 45.0813C30.6565 44.0814 30.4031 43.2018 30.4307 41.0666C30.4407 40.3073 30.2927 39.553 29.9941 38.8538C29.56 37.8364 29.2338 36.2701 29.0205 34.5134C28.5889 30.9749 28.6115 26.6645 29.1159 24.5118C29.3417 23.5545 29.6604 23.0258 30.0794 23.1811C32.0667 23.9179 34.3125 26.9803 34.3125 26.9803C34.3125 26.9803 34.4304 31.3282 34.4931 35.2702C34.5107 36.4105 34.7741 37.5357 35.2685 38.5631C35.69 39.4402 36.1467 40.4301 36.2722 41.9062C36.503 44.5726 34.6838 53.083 34.6838 53.083Z" fill="#F58E8C"/>
        <path d="M29.023 34.511C28.5914 30.9725 28.614 26.6622 29.1183 24.5095C29.4445 24.4944 29.7732 24.4969 30.0994 24.5195C31.0178 28.9151 29.6703 32.9347 29.023 34.511Z" fill="#DB877C"/>
        <path d="M31.2489 37.9891C31.2489 37.9891 31.6981 39.5379 32.2651 39.4351C32.5738 39.38 32.9125 37.1296 32.7419 37.0143C32.5562 36.889 31.1987 37.6809 31.2489 37.9891Z" fill="#DB877C"/>
        <path d="M10.6225 23.9775C10.6225 23.9775 10.5071 25.2932 10.3139 26.6991C10.1834 27.6363 10.0178 28.6162 9.82712 29.2728C9.65148 29.8717 9.23746 30.4656 8.70048 31.0295C7.76705 32.0093 6.46979 32.909 5.42595 33.6132C4.78109 34.0493 4.18138 34.4978 3.75481 34.8311C3.34832 35.1469 3.09489 35.3599 3.09489 35.3599C3.11747 35.4175 4.85134 39.8682 6.0106 41.3944C7.17739 42.9306 8.79583 44.7324 8.79583 44.7324L6.43466 46.9528C6.43466 46.9528 3.62433 44.4643 0.81652 42.3993C-1.9938 40.3369 -2.68133 37.7958 -3 34.7259C-1.14569 29.5384 4.99688 24.6366 4.99688 24.6366L10.6225 23.9775Z" fill="#F58E8C"/>
        <path d="M10.314 26.6989C10.1835 27.6362 10.0179 28.6161 9.82722 29.2726C9.65158 29.8716 9.23756 30.4655 8.70058 31.0294C8.33173 28.3905 9.09704 25.2705 9.09704 25.2705L10.314 26.6989Z" fill="#DB877C"/>
        <path d="M3.7572 34.8314C3.3507 35.1472 3.09727 35.3602 3.09727 35.3602C3.09727 35.3602 2.74849 34.8064 1.34082 34.3252C2.30687 34.3252 3.14244 34.5182 3.7572 34.8314Z" fill="#DB877C"/>
        <path d="M34.3143 26.9775C34.3318 27.0277 32.5528 25.7847 30.3221 24.3938C30.8541 28.2932 28.1516 35.5907 28.1516 35.5907L28.3975 42.8632H11.4729L11.6084 36.2348C11.6084 36.2348 9.09163 30.7165 8.62491 25.1707C7.46314 25.3286 6.3365 24.9426 4.99658 24.6344C6.27628 21.4818 8.95111 19.8454 11.2571 19.4018C11.7213 19.2465 14.9883 18.2165 17.2064 17.392C17.224 17.2216 17.2165 16.347 17.2039 15.5075C17.1914 14.6529 17.1738 13.8359 17.1738 13.8359C17.1738 13.8359 22.4055 13.5803 22.4708 13.5954C22.5084 13.6054 22.5235 14.6228 22.5335 15.5776C22.541 16.4297 22.541 17.2341 22.541 17.2341C22.541 17.2341 25.4266 18.4746 28.4377 19.0585C31.4462 19.6424 32.5804 20.3541 33.5289 21.8728C35.1599 24.4916 34.2967 26.9249 34.3143 26.9775Z" fill="#F58E8C"/>
        <path d="M22.4909 13.7708C22.5762 15.119 21.9063 16.4146 20.7295 17.0838C20.4685 17.2316 20.2226 17.3243 20.0193 17.3243C19.6505 17.3243 19.1888 17.0963 18.7371 16.7905C17.7761 16.144 17.1965 15.0689 17.1739 13.9111C17.1739 13.861 17.1714 13.8359 17.1714 13.8359C17.1714 13.8359 22.4031 13.5803 22.4683 13.5954C22.4759 13.6004 22.4834 13.663 22.4909 13.7708Z" fill="#D26066"/>
        <path d="M30.3222 24.3936C29.7376 25.6466 28.6059 28.5836 26.9297 29.1826C25.0403 29.8467 23.2412 30.0998 17.9543 29.8868C13.2344 29.6963 11.7414 28.734 10.6148 26.7242C10.2008 25.9849 9.51828 25.4311 8.70529 25.1955C8.65511 25.1804 8.625 25.1729 8.625 25.1729C8.625 25.1729 8.625 25.1729 8.62751 25.1729C9.51577 25.0351 10.4091 25.391 10.9661 26.0977C11.8945 27.2755 12.6849 28.0273 14.1904 28.5235C14.4489 28.6087 14.7274 28.6864 15.031 28.7565C15.44 28.8518 15.9921 28.9245 16.6319 28.9771C18.6318 29.1375 21.5098 29.0974 23.7154 28.9169C24.8446 28.8242 25.7981 28.6964 26.3677 28.5385C26.5534 28.4884 26.6989 28.4333 26.7968 28.3756C27.946 27.6915 29.8831 24.4161 30.3222 24.3936Z" fill="#F28482"/>
        <path d="M17.7607 16.5996C17.8285 17.9504 18.8899 20.732 19.9513 20.6418C21.0127 20.5541 21.9762 17.6221 22.1142 16.6247C21.8683 17.0156 20.5108 20.0905 19.9663 20.1005C19.1885 20.1131 17.9364 17.0056 17.7607 16.5996Z" fill="#F28482"/>
        <path d="M20.2375 21.2292C19.7533 21.2367 19.269 21.2267 18.7897 21.1916C16.7874 21.0488 14.775 20.5526 12.7852 21.0613C12.7852 21.0613 13.5555 21.0362 15.2342 21.1841C17.1838 21.357 19.1385 21.8582 21.1133 21.6577C22.3127 21.5374 23.492 21.2893 24.6939 21.1841C26.3726 21.0362 27.1429 21.0613 27.1429 21.0613C26.3801 20.8658 25.5822 20.8107 24.7918 20.8357C23.7881 20.8683 22.7969 21.0262 21.8033 21.1315C21.2839 21.1866 20.7595 21.2192 20.2375 21.2292Z" fill="#F28482"/>
        <path d="M20.1697 22.6221C20.1697 22.6221 19.6453 26.1305 20.1998 28.0677C20.5411 26.0077 20.1697 22.6221 20.1697 22.6221Z" fill="#F28482"/>
        <path d="M16.6319 28.9745C15.9895 28.9218 15.44 28.8492 15.031 28.7539C14.7274 28.6838 14.4489 28.6061 14.1904 28.5209C14.5041 28.3079 15.1289 27.9921 15.7988 28.2527C16.2731 28.4382 16.5115 28.7289 16.6319 28.9745Z" fill="#D26066"/>
        <path d="M26.3651 28.536C25.7955 28.6938 24.842 28.8216 23.7129 28.9144C23.8208 28.6562 24.0592 28.3305 24.5761 28.13C25.4292 27.7992 26.2096 28.4031 26.3651 28.536Z" fill="#D26066"/>
        <path d="M15.3848 32.3658C15.3848 32.3658 15.8138 32.8294 17.6355 33.1577C19.4547 33.4885 22.3077 33.3306 23.0605 33.2228C24.1194 32.9923 25.0453 32.3633 25.0453 32.3633C25.0453 32.3633 19.9842 32.8294 15.3848 32.3658Z" fill="#F28482"/>
        <path d="M16.2227 34.8213C16.2227 34.8213 16.579 35.2473 18.082 35.5531C19.5875 35.8563 21.9462 35.7134 22.5685 35.6132C23.4442 35.4002 24.2095 34.8213 24.2095 34.8213C24.2095 34.8213 20.0241 35.2473 16.2227 34.8213Z" fill="#F28482"/>
        <path d="M17.0933 37.1494C17.0933 37.1494 17.3718 37.5754 18.5486 37.8812C19.7254 38.1844 21.5697 38.0416 22.0565 37.9413C22.7415 37.7283 23.3387 37.1494 23.3387 37.1494C23.3387 37.1494 20.0667 37.5754 17.0933 37.1494Z" fill="#F28482"/>
        <path d="M20.0644 30.21C20.0644 30.21 19.5927 31.7386 20.1597 32.9641C20.5813 31.9266 20.0644 30.21 20.0644 30.21Z" fill="#F28482"/>
        <path d="M20.0644 32.8916C20.0644 32.8916 19.5927 34.4203 20.1597 35.6457C20.5813 34.6082 20.0644 32.8916 20.0644 32.8916Z" fill="#F28482"/>
        <path d="M10.9759 30.0303C10.9759 30.0303 11.686 31.8872 13.3747 32.5488C12.9105 32.817 10.4364 32.1078 10.9759 30.0303Z" fill="#F28482"/>
        <path d="M29.0624 29.8066C29.0624 29.8066 28.3523 31.6636 26.6636 32.3252C27.1278 32.5933 29.6019 31.8841 29.0624 29.8066Z" fill="#F28482"/>
        <path d="M20.3406 39.1924C20.3406 39.1924 19.5929 40.6158 20.3657 42.0392C21.0758 40.2274 20.3406 39.1924 20.3406 39.1924Z" fill="#D26066"/>
        <path d="M13.769 39.6104C13.769 39.6104 15.3498 40.906 15.7287 42.7053C14.0551 42.0437 13.8017 40.2118 13.769 39.6104Z" fill="#F28482"/>
        <path d="M25.8835 39.6104C25.8835 39.6104 24.3027 40.906 23.9238 42.7053C25.5975 42.0437 25.8509 40.2118 25.8835 39.6104Z" fill="#F28482"/>
        <path d="M16.7578 11.4376C16.7578 11.4376 16.0126 9.79365 15.8997 9.33755C15.7843 8.88145 16.4141 7.89408 16.7302 7.7788C16.6876 6.52078 17.3751 5.16251 18.5344 5.0347C19.6936 4.9069 21.8967 5.11991 23.2567 6.50574C22.928 6.37793 22.6846 6.33533 22.6846 6.33533C22.6846 6.33533 23.7586 7.22246 24.2027 8.46545C24.2604 9.46536 23.4148 11.1669 23.1287 11.5378C22.8377 11.9087 16.7578 11.4376 16.7578 11.4376Z" fill="#312342"/>
        <path d="M16.778 11.0795C16.778 11.0795 16.5647 10.1823 16.1582 10.0219C15.7517 9.86156 15.2373 10.6134 15.3477 11.1948C15.4581 11.7762 16.0076 12.4854 16.4041 12.6057C16.7253 12.7009 16.9862 12.3175 17.0389 12.0819C17.0866 11.8463 16.778 11.0795 16.778 11.0795Z" fill="#DB877C"/>
        <path d="M15.9626 11.6232C15.9626 11.6232 15.7016 11.2122 15.7343 10.934C15.7669 10.6558 15.9676 10.33 16.1282 10.3401C16.2888 10.3501 16.6551 11.1996 16.6727 11.345C16.6903 11.4903 16.3666 11.4953 16.4118 11.6733C16.4569 11.8512 16.6853 12.0166 16.758 12.1143C16.8082 12.182 16.8408 12.3048 16.6451 12.3324C16.4494 12.3599 16.1458 11.9489 16.1458 11.9489C16.1458 11.9489 16.5021 12.2346 16.5974 12.162C16.6928 12.0893 16.3566 11.8261 16.2361 11.6332C16.1132 11.4377 16.4996 11.3801 16.4895 11.2723C16.487 11.2372 16.2587 10.6508 16.1132 10.6608C15.9676 10.6759 15.802 11.0092 15.9626 11.6232Z" fill="#D26066"/>
        <path d="M16.2412 11.1125C16.2437 11.105 16.0605 11.3005 16.1107 11.5586C16.1609 11.8167 16.2964 11.9144 16.2964 11.9144C16.2964 11.9144 16.0128 11.7816 16.0078 11.4508C16.0078 11.1702 16.2412 11.1125 16.2412 11.1125Z" fill="#D26066"/>
        <path d="M16.7598 9.99137C16.6468 10.059 16.5791 10.1818 16.5816 10.3146C16.5916 11.0589 16.7673 13.6101 16.9655 14.0662C17.096 14.3644 17.4573 14.6952 17.7509 14.9307C17.9943 15.1262 18.2151 15.3518 18.4033 15.5999C18.5087 15.7402 18.6417 15.8755 18.7747 15.9156C19.0783 16.0058 20.1773 16.0509 20.5136 15.9256C20.7544 15.8379 20.8623 15.7252 21.0179 15.5547C21.1459 15.4144 21.3015 15.3016 21.4721 15.2189C22.1721 14.8907 22.6062 14.5022 22.8195 14.1489C23.0554 13.7579 23.2762 11.074 23.2762 11.074C23.2762 11.074 22.9651 11.1141 22.8848 10.8058C22.8446 10.5653 22.822 10.3021 22.8095 10.1242C22.7995 9.99388 22.7217 9.87609 22.6062 9.81595C22.398 9.70819 22.0893 9.53527 22.0467 9.44005C21.9789 9.2947 22.0015 8.03918 22.0015 8.03918C22.0015 8.03918 18.1549 7.85874 17.4147 8.03918C17.3821 8.30732 17.3921 8.96139 17.3821 9.34983C17.377 9.52274 17.2842 9.68062 17.1336 9.76833C17.0006 9.84602 16.8652 9.92872 16.7598 9.99137Z" fill="#F58E8C"/>
        <path d="M19.1362 14.5048C19.1362 14.5048 19.2993 14.2316 19.7435 14.2191C20.1876 14.2066 20.3758 14.5374 20.3758 14.5374C20.3758 14.5374 19.7359 14.7153 19.1362 14.5048Z" fill="#DB877C"/>
        <path d="M22.993 11.7383C22.993 11.7383 22.9453 12.0114 22.7395 12.3071C22.5338 12.6054 22.2552 13.1667 22.1875 13.4198C22.4459 13.1316 22.7596 12.7407 22.8775 12.4926C22.993 12.247 22.993 11.7383 22.993 11.7383Z" fill="#DB877C"/>
        <path d="M16.8276 11.7383C16.8276 11.7383 16.8703 12.0114 17.0484 12.3071C17.2291 12.6054 17.475 13.1667 17.5327 13.4198C17.3044 13.1316 17.0284 12.7407 16.928 12.4926C16.8276 12.247 16.8276 11.7383 16.8276 11.7383Z" fill="#DB877C"/>
        <path d="M20.3179 11.4344C20.3179 11.4344 20.4333 11.6449 21.2287 11.6499C22.0241 11.6549 22.2901 11.2715 22.2901 11.2715L20.4835 11.3366L20.3179 11.4344Z" fill="#DB877C"/>
        <path d="M20.6191 10.7555C20.6191 10.7555 20.4359 10.9761 20.4233 11.3996C20.7847 11.3695 21.427 10.7229 21.427 10.7229C21.427 10.7229 20.7771 10.6854 20.6191 10.7555Z" fill="#D26066"/>
        <path d="M20.6062 11.1465C20.5862 11.149 20.3152 11.4347 20.3503 11.4948C20.3804 11.5274 20.5134 11.4798 20.5134 11.4798L20.6062 11.1465Z" fill="#DB877C"/>
        <path d="M20.4883 11.4323C20.4858 11.4022 20.5987 10.8434 20.8722 10.7632C21.1482 10.683 21.5397 10.6704 21.7831 10.7632C22.0265 10.8534 22.2874 11.2744 22.2874 11.2744C22.2874 11.2744 21.9261 11.4172 21.2561 11.4598C20.5485 11.5024 20.4883 11.4323 20.4883 11.4323Z" fill="white"/>
        <path d="M21.6903 11.061C21.6752 11.264 21.497 11.4168 21.2913 11.3993C21.088 11.3842 20.935 11.2063 20.9525 11.0008C20.9676 10.7978 21.1458 10.645 21.3515 10.6625C21.5548 10.68 21.7053 10.858 21.6903 11.061Z" fill="#312342"/>
        <path d="M21.8634 11.2217C21.8885 11.104 21.492 11.0263 21.4644 11.1491C21.4469 11.2192 21.8433 11.307 21.8634 11.2217Z" fill="white"/>
        <path d="M20.4634 10.828C20.4634 10.828 21.1911 10.7503 21.5624 10.8255C21.9338 10.9007 22.2876 11.2741 22.2876 11.2741C22.2876 11.2741 22.0793 10.7553 21.6628 10.6601C21.0882 10.5248 20.6089 10.6877 20.4634 10.828Z" fill="#312342"/>
        <path d="M20.8574 10.5201C20.8574 10.5201 21.4069 10.465 21.6804 10.5552C21.9539 10.6454 22.1647 10.8233 22.1647 10.8233C22.1647 10.8233 21.9941 10.5577 21.8185 10.48C21.6403 10.3998 21.1886 10.3848 20.8574 10.5201Z" fill="#DB877C"/>
        <path d="M19.0286 9.83398C19.0286 9.83398 19.3774 10.2324 19.4401 10.4655C19.5054 10.6986 19.4778 11.2173 19.4627 11.2173C19.4476 11.2173 18.8555 10.0946 18.8555 10.0946L19.0286 9.83398Z" fill="#DB877C"/>
        <path d="M18.0652 10.1446C18.4039 10.1446 19.1743 10.2373 19.1667 10.2148C19.1592 10.1947 19.1065 9.90904 19.0287 9.83136C18.562 9.83136 18.2434 9.6434 17.8469 9.7261C17.4504 9.81131 17.2246 10.2749 17.2246 10.2749C17.2246 10.2749 17.7265 10.1446 18.0652 10.1446Z" fill="#312342"/>
        <path d="M20.4612 9.83398C20.4612 9.83398 20.1978 10.2249 20.1024 10.4655C20.0071 10.7061 20.0397 11.2023 20.0698 11.2023C20.248 10.7712 20.5591 10.0069 20.5591 10.0069L20.4612 9.83398Z" fill="#DB877C"/>
        <path d="M21.4224 10.1446C21.0837 10.1446 20.3133 10.2373 20.3209 10.2148C20.3284 10.1947 20.3811 9.90904 20.4589 9.83136C20.9256 9.83136 21.2442 9.6434 21.6407 9.7261C22.0372 9.81131 22.263 10.2749 22.263 10.2749C22.263 10.2749 21.7611 10.1446 21.4224 10.1446Z" fill="#312342"/>
        <path d="M19.1064 12.2171C19.1064 12.2171 19.5506 13.0942 19.7965 13.0566C20.0424 13.019 20.4313 12.207 20.4313 12.207C20.4313 12.207 20.0273 12.5779 19.7011 12.5378C19.3774 12.5002 19.1064 12.2171 19.1064 12.2171Z" fill="#DB877C"/>
        <path d="M19.7463 12.3975C19.9295 12.3925 20.4313 12.207 20.4313 12.207C20.4313 12.207 20.0951 12.603 19.7538 12.623C19.4753 12.6381 19.1064 12.2145 19.1064 12.2171C19.1064 12.2171 19.5631 12.4025 19.7463 12.3975Z" fill="#D26066"/>
        <path d="M19.5832 11.9467C19.3849 11.9918 19.4301 12.3076 19.7162 12.3251C20.0022 12.3426 20.08 12.1221 19.9997 11.9943C19.942 11.9216 19.7613 11.9041 19.5832 11.9467Z" fill="#E9BBB1"/>
        <path d="M18.4238 13.3097C18.4238 13.3097 18.6246 13.7232 18.8102 13.7357C18.9934 13.7483 20.3986 13.8235 20.7122 13.7633C21.0259 13.7032 21.2868 13.2471 21.2868 13.2471L18.4238 13.3097Z" fill="white"/>
        <path d="M19.1515 11.4758C19.1515 11.4758 19.031 11.6913 18.2406 11.6713C17.4502 11.6512 17.1968 11.2402 17.1968 11.2402L18.9884 11.368L19.1515 11.4758Z" fill="#DB877C"/>
        <path d="M18.8703 10.7567C18.8703 10.7567 19.046 10.9922 19.046 11.4358C18.6872 11.3932 18.0674 10.694 18.0674 10.694C18.0674 10.694 18.7173 10.6765 18.8703 10.7567Z" fill="#D26066"/>
        <path d="M18.8755 11.1328C18.8956 11.1353 19.1666 11.421 19.1314 11.4812C19.1013 11.5137 18.9683 11.4661 18.9683 11.4661L18.8755 11.1328Z" fill="#DB877C"/>
        <path d="M18.9832 11.4654C18.9857 11.4328 18.8904 10.8464 18.6194 10.7537C18.3484 10.661 17.9594 10.6359 17.716 10.7211C17.4701 10.8088 17.2017 11.2373 17.2017 11.2373C17.2017 11.2373 17.5555 11.4002 18.2204 11.4654C18.9205 11.5381 18.9832 11.4654 18.9832 11.4654Z" fill="white"/>
        <path d="M18.5443 11.0173C18.5543 11.2303 18.3987 11.4107 18.1955 11.4207C17.9922 11.4308 17.8191 11.2654 17.8091 11.0523C17.799 10.8393 17.9546 10.6589 18.1578 10.6489C18.3636 10.6388 18.5367 10.8042 18.5443 11.0173Z" fill="#312342"/>
        <path d="M19.0234 10.8344C19.0234 10.8344 18.3033 10.7267 17.9319 10.7943C17.5605 10.8595 17.1992 11.2379 17.1992 11.2379C17.1992 11.2379 17.42 10.7041 17.8366 10.6164C18.4112 10.4986 18.8829 10.6841 19.0234 10.8344Z" fill="#312342"/>
        <path d="M18.6418 10.5008C18.6418 10.5008 18.0973 10.4231 17.8238 10.5108C17.5503 10.596 17.3345 10.774 17.3345 10.774C17.3345 10.774 17.5101 10.5033 17.6883 10.4281C17.8664 10.3504 18.3181 10.3479 18.6418 10.5008Z" fill="#DB877C"/>
        <path d="M18.7024 11.172C18.7124 11.0467 18.3109 11.0166 18.2984 11.1469C18.2934 11.2246 18.6948 11.2622 18.7024 11.172Z" fill="white"/>
        <path d="M23.2938 11.0863C23.2938 11.0863 23.5071 10.1892 23.9136 10.0288C24.3201 9.8684 24.8344 10.6202 24.724 11.2016C24.6136 11.783 24.0641 12.4922 23.6677 12.6125C23.3465 12.7077 23.0855 12.3243 23.0328 12.0887C22.9826 11.8532 23.2938 11.0863 23.2938 11.0863Z" fill="#F58E8C"/>
        <path d="M24.2395 11.6329C24.2395 11.6329 24.5005 11.2219 24.4679 10.9438C24.4352 10.6656 24.2345 10.3398 24.0739 10.3498C23.9133 10.3599 23.547 11.2094 23.5294 11.3548C23.5119 11.5001 23.8355 11.5051 23.7904 11.683C23.7452 11.861 23.5169 12.0264 23.4441 12.1241C23.3939 12.1918 23.3613 12.3146 23.557 12.3421C23.7527 12.3697 24.0564 11.9587 24.0564 11.9587C24.0564 11.9587 23.7 12.2444 23.6047 12.1717C23.5093 12.099 23.8456 11.8359 23.966 11.6429C24.089 11.4475 23.7026 11.3898 23.7126 11.2821C23.7151 11.247 23.9434 10.6606 24.089 10.6706C24.2345 10.6831 24.4001 11.0164 24.2395 11.6329Z" fill="#D26066"/>
        <path d="M23.9585 11.1213C23.956 11.1138 24.1392 11.3093 24.089 11.5674C24.0388 11.8255 23.9033 11.9232 23.9033 11.9232C23.9033 11.9232 24.1869 11.7904 24.1919 11.4596C24.1944 11.1764 23.9585 11.1213 23.9585 11.1213Z" fill="#DB877C"/>
    </g>
    <defs>
        <clipPath id="clip0_532_24848">
            <rect width="40" height="40" rx="20" fill="white"/>
        </clipPath>
    </defs>
</svg>
